<svg width="168" height="156" viewBox="0 0 168 156" fill="none" xmlns="http://www.w3.org/2000/svg">
<path d="M82.467 59.9332C80.4195 58.032 77.091 58.0222 75.033 59.9235L57.75 75.9818L50.967 69.6735C48.9195 67.7722 45.591 67.7722 43.5435 69.6735C41.496 71.5747 41.496 74.6655 43.5435 76.5668L54.0435 86.3167C55.062 87.2722 56.406 87.75 57.75 87.75C59.094 87.75 60.438 87.2723 61.467 86.3265L82.467 66.8265C84.5145 64.9253 84.5145 61.8345 82.467 59.9332Z" fill="black"/>
<path d="M82.467 98.9332C80.4195 97.032 77.091 97.0222 75.033 98.9235L57.75 114.982L50.967 108.683C48.9195 106.782 45.591 106.782 43.5435 108.683C41.496 110.584 41.496 113.675 43.5435 115.576L54.0435 125.326C55.062 126.272 56.406 126.75 57.75 126.75C59.094 126.75 60.438 126.272 61.467 125.326L82.467 105.826C84.5145 103.925 84.5145 100.834 82.467 98.9332Z" fill="black"/>
<path d="M120.75 68.25H99.75C96.852 68.25 94.5 70.434 94.5 73.125C94.5 75.816 96.852 78 99.75 78H120.75C123.648 78 126 75.816 126 73.125C126 70.434 123.648 68.25 120.75 68.25Z" fill="black"/>
<path d="M120.75 107.25H99.75C96.852 107.25 94.5 109.434 94.5 112.125C94.5 114.816 96.852 117 99.75 117H120.75C123.648 117 126 114.816 126 112.125C126 109.434 123.648 107.25 120.75 107.25Z" fill="black"/>
<path d="M136.5 19.5H115.5V14.625C115.5 11.934 113.148 9.75 110.25 9.75H98.8575C96.684 4.0755 90.846 0 84 0C77.154 0 71.316 4.0755 69.1425 9.75H57.75C54.852 9.75 52.5 11.934 52.5 14.625V19.5H31.5C25.7145 19.5 21 23.8778 21 29.25V146.25C21 151.622 25.7145 156 31.5 156H136.5C142.285 156 147 151.622 147 146.25V29.25C147 23.8778 142.285 19.5 136.5 19.5ZM63 19.5H73.5C76.398 19.5 78.75 17.316 78.75 14.625C78.75 11.934 81.102 9.75 84 9.75C86.898 9.75 89.25 11.934 89.25 14.625C89.25 17.316 91.602 19.5 94.5 19.5H105V29.25H63V19.5ZM136.5 146.25H31.5V29.25H52.5V34.125C52.5 36.816 54.852 39 57.75 39H110.25C113.148 39 115.5 36.816 115.5 34.125V29.25H136.5V146.25Z" fill="black"/>
</svg>
