<svg width="398" height="115" viewBox="0 0 398 115" fill="none" xmlns="http://www.w3.org/2000/svg">
<path d="M3.98438 9.21875C6.29688 9.21875 8.32812 9.53125 10.0781 10.1562C11.8438 10.7656 13.3125 11.6016 14.4844 12.6641C15.6719 13.7109 16.5625 14.9297 17.1562 16.3203C17.75 17.7109 18.0469 19.1719 18.0469 20.7031C18.0469 21.3594 17.9609 22.0391 17.7891 22.7422C17.6172 23.4453 17.3672 24.1406 17.0391 24.8281C16.7109 25.5 16.3047 26.1562 15.8203 26.7969C15.3359 27.4375 14.7891 28.0391 14.1797 28.6016C15.7734 29.5391 16.9922 30.7031 17.8359 32.0938C18.6953 33.4688 19.125 35.0703 19.125 36.8984C19.125 38.4141 18.8047 39.8203 18.1641 41.1172C17.5234 42.3984 16.5703 43.5078 15.3047 44.4453C14.0391 45.3828 12.4609 46.1172 10.5703 46.6484C8.67969 47.1641 6.48438 47.4219 3.98438 47.4219V9.21875ZM8.34375 27.3594C8.92188 27.3594 9.51562 27.1953 10.125 26.8672C10.7344 26.5234 11.2891 26.0625 11.7891 25.4844C12.3047 24.8906 12.7188 24.1875 13.0312 23.375C13.3594 22.5625 13.5234 21.6797 13.5234 20.7266C13.5234 19.7422 13.3594 18.8438 13.0312 18.0312C12.7188 17.2188 12.3047 16.5234 11.7891 15.9453C11.2891 15.3516 10.7344 14.8984 10.125 14.5859C9.51562 14.2578 8.92188 14.0938 8.34375 14.0938V27.3594ZM8.34375 42.5469C9.23438 42.5469 10.0625 42.4141 10.8281 42.1484C11.5938 41.8672 12.25 41.4844 12.7969 41C13.3594 40.5 13.7969 39.9062 14.1094 39.2188C14.4375 38.5156 14.6016 37.7422 14.6016 36.8984C14.6016 36.2266 14.4375 35.5547 14.1094 34.8828C13.7969 34.2109 13.3594 33.6094 12.7969 33.0781C12.25 32.5312 11.5938 32.0938 10.8281 31.7656C10.0625 31.4219 9.23438 31.25 8.34375 31.25V42.5469ZM25.1016 22.1094H29.2734V38.3281C29.2734 41.5938 30.5469 43.2266 33.0938 43.2266C33.9531 43.2266 34.7188 43.0547 35.3906 42.7109C36.0781 42.3516 36.6562 41.8672 37.125 41.2578V22.1094H41.2969V47.4688L38.2031 45.2656C37.4844 45.8281 36.5938 46.3281 35.5312 46.7656C34.4844 47.2031 33.3438 47.4219 32.1094 47.4219C31.1406 47.4219 30.2266 47.25 29.3672 46.9062C28.5234 46.5469 27.7812 46.0312 27.1406 45.3594C26.5156 44.6719 26.0156 43.8281 25.6406 42.8281C25.2812 41.8125 25.1016 40.6484 25.1016 39.3359V22.1094ZM55.9922 47.4453C54.7891 47.4453 53.6406 47.1953 52.5469 46.6953C51.4688 46.1953 50.5234 45.4219 49.7109 44.375C48.8984 43.3281 48.25 41.9922 47.7656 40.3672C47.2969 38.7422 47.0625 36.8047 47.0625 34.5547C47.0625 32.3047 47.2969 30.3672 47.7656 28.7422C48.25 27.1172 48.8984 25.7812 49.7109 24.7344C50.5234 23.6875 51.4688 22.9141 52.5469 22.4141C53.6406 21.9141 54.7891 21.6641 55.9922 21.6641C56.6016 21.6641 57.1875 21.7422 57.75 21.8984C58.3125 22.0547 58.8438 22.2812 59.3438 22.5781V9.66406H63.5156V47.5391L60.6797 45.5234C60.0547 46.1484 59.3438 46.625 58.5469 46.9531C57.75 47.2812 56.8984 47.4453 55.9922 47.4453ZM56.2734 43.5078C56.8672 43.5078 57.4219 43.4062 57.9375 43.2031C58.4531 43 58.9219 42.7109 59.3438 42.3359V26.7969C58.4688 26 57.4453 25.6016 56.2734 25.6016C55.6328 25.6016 55.0156 25.7422 54.4219 26.0234C53.8281 26.3047 53.2969 26.7891 52.8281 27.4766C52.375 28.1484 52.0078 29.0625 51.7266 30.2188C51.4453 31.3594 51.3047 32.8047 51.3047 34.5547C51.3047 36.3047 51.4453 37.7578 51.7266 38.9141C52.0078 40.0547 52.375 40.9688 52.8281 41.6562C53.2969 42.3281 53.8281 42.8047 54.4219 43.0859C55.0156 43.3672 55.6328 43.5078 56.2734 43.5078ZM69.3281 39.2188C69.3281 36.6875 70.2188 34.6953 72 33.2422C73.7969 31.7891 76.4375 30.9766 79.9219 30.8047V30.3125C79.9219 28.8438 79.5703 27.6953 78.8672 26.8672C78.1797 26.0391 77.2344 25.625 76.0312 25.625C75.4062 25.625 74.7578 25.7422 74.0859 25.9766C73.4297 26.1953 72.7734 26.4922 72.1172 26.8672L70.5234 23.1172C71.5078 22.6172 72.5391 22.25 73.6172 22.0156C74.6953 21.7812 75.6719 21.6641 76.5469 21.6641C77.6719 21.6641 78.6953 21.8594 79.6172 22.25C80.5391 22.6406 81.3281 23.2031 81.9844 23.9375C82.6406 24.6562 83.1484 25.5391 83.5078 26.5859C83.8672 27.6328 84.0469 28.8203 84.0469 30.1484V47.4453L80.9766 45.9453C80.3828 46.4141 79.7188 46.7812 78.9844 47.0469C78.2656 47.3125 77.4844 47.4453 76.6406 47.4453C75.5781 47.4453 74.5938 47.2344 73.6875 46.8125C72.7969 46.375 72.0234 45.7891 71.3672 45.0547C70.7266 44.3203 70.2266 43.4531 69.8672 42.4531C69.5078 41.4531 69.3281 40.375 69.3281 39.2188ZM73.5703 39.2891C73.5703 39.8672 73.6562 40.4062 73.8281 40.9062C74 41.3906 74.2422 41.8203 74.5547 42.1953C74.8672 42.5547 75.2422 42.8359 75.6797 43.0391C76.1172 43.2422 76.6016 43.3438 77.1328 43.3438C77.6797 43.3438 78.2031 43.2422 78.7031 43.0391C79.2031 42.8359 79.6094 42.5781 79.9219 42.2656V34.5547C78.9219 34.5391 78.0312 34.6406 77.25 34.8594C76.4688 35.0625 75.8047 35.375 75.2578 35.7969C74.7109 36.2031 74.2891 36.7031 73.9922 37.2969C73.7109 37.875 73.5703 38.5391 73.5703 39.2891ZM109.055 47.4453C107.555 47.4453 106.125 47.1094 104.766 46.4375C103.406 45.7656 102.219 44.6719 101.203 43.1562C100.188 41.6406 99.375 39.6719 98.7656 37.25C98.1719 34.8125 97.875 31.8438 97.875 28.3438C97.875 24.8438 98.1719 21.8828 98.7656 19.4609C99.375 17.0234 100.188 15.0547 101.203 13.5547C102.219 12.0391 103.406 10.9453 104.766 10.2734C106.125 9.58594 107.555 9.24219 109.055 9.24219C109.914 9.24219 110.703 9.32031 111.422 9.47656C112.156 9.63281 112.906 9.875 113.672 10.2031L111.727 13.9766C111.148 13.7109 110.453 13.5781 109.641 13.5781C108.766 13.5781 107.898 13.8437 107.039 14.375C106.18 14.8906 105.406 15.7344 104.719 16.9062C104.031 18.0781 103.469 19.6016 103.031 21.4766C102.609 23.3516 102.398 25.6406 102.398 28.3438C102.398 31.0469 102.609 33.3359 103.031 35.2109C103.469 37.0859 104.031 38.6094 104.719 39.7812C105.406 40.9531 106.18 41.8047 107.039 42.3359C107.898 42.8516 108.766 43.1094 109.641 43.1094C110.453 43.1094 111.148 42.9766 111.727 42.7109L113.672 46.4844C112.906 46.8125 112.156 47.0547 111.422 47.2109C110.703 47.3672 109.914 47.4453 109.055 47.4453ZM126.562 47.4453C125.391 47.4453 124.266 47.1797 123.188 46.6484C122.109 46.1172 121.148 45.3125 120.305 44.2344C119.477 43.1562 118.812 41.8125 118.312 40.2031C117.812 38.5938 117.562 36.7109 117.562 34.5547C117.562 32.3984 117.812 30.5156 118.312 28.9062C118.812 27.2969 119.477 25.9531 120.305 24.875C121.148 23.7969 122.109 22.9922 123.188 22.4609C124.266 21.9297 125.391 21.6641 126.562 21.6641C127.734 21.6641 128.859 21.9297 129.938 22.4609C131.016 22.9922 131.969 23.7969 132.797 24.875C133.641 25.9531 134.312 27.2969 134.812 28.9062C135.312 30.5156 135.562 32.3984 135.562 34.5547C135.562 36.7109 135.312 38.5938 134.812 40.2031C134.312 41.8125 133.641 43.1562 132.797 44.2344C131.969 45.3125 131.016 46.1172 129.938 46.6484C128.859 47.1797 127.734 47.4453 126.562 47.4453ZM126.562 43.3438C127.125 43.3438 127.68 43.1953 128.227 42.8984C128.773 42.5859 129.266 42.0859 129.703 41.3984C130.156 40.7109 130.516 39.8047 130.781 38.6797C131.062 37.5547 131.203 36.1797 131.203 34.5547C131.203 32.9297 131.062 31.5625 130.781 30.4531C130.516 29.3281 130.156 28.4219 129.703 27.7344C129.266 27.0312 128.773 26.5312 128.227 26.2344C127.68 25.9219 127.125 25.7656 126.562 25.7656C126 25.7656 125.445 25.9219 124.898 26.2344C124.352 26.5312 123.852 27.0312 123.398 27.7344C122.961 28.4219 122.602 29.3281 122.32 30.4531C122.055 31.5625 121.922 32.9297 121.922 34.5547C121.922 36.1797 122.055 37.5547 122.32 38.6797C122.602 39.8047 122.961 40.7109 123.398 41.3984C123.852 42.0859 124.352 42.5859 124.898 42.8984C125.445 43.1953 126 43.3438 126.562 43.3438ZM141.211 26.0469H139.312V22.1094H141.211V20.7031C141.211 19.0938 141.406 17.6016 141.797 16.2266C142.203 14.8516 142.773 13.6562 143.508 12.6406C144.258 11.6094 145.148 10.7969 146.18 10.2031C147.227 9.59375 148.398 9.26562 149.695 9.21875V13.3203C148.961 13.4297 148.32 13.6953 147.773 14.1172C147.227 14.5234 146.773 15.0547 146.414 15.7109C146.07 16.3672 145.812 17.125 145.641 17.9844C145.469 18.8438 145.383 19.7656 145.383 20.75V22.1094H149.555V26.0469H145.383V47H141.211V26.0469ZM154.477 26.0469H152.578V22.1094H154.477V20.7031C154.477 19.0938 154.672 17.6016 155.062 16.2266C155.469 14.8516 156.039 13.6562 156.773 12.6406C157.523 11.6094 158.414 10.7969 159.445 10.2031C160.492 9.59375 161.664 9.26562 162.961 9.21875V13.3203C162.227 13.4297 161.586 13.6953 161.039 14.1172C160.492 14.5234 160.039 15.0547 159.68 15.7109C159.336 16.3672 159.078 17.125 158.906 17.9844C158.734 18.8438 158.648 19.7656 158.648 20.75V22.1094H162.82V26.0469H158.648V47H154.477V26.0469ZM175.547 47.4453C174.203 47.4453 172.961 47.1562 171.82 46.5781C170.695 45.9844 169.711 45.1328 168.867 44.0234C168.039 42.8984 167.391 41.5312 166.922 39.9219C166.453 38.2969 166.219 36.4531 166.219 34.3906C166.219 32.2812 166.461 30.4297 166.945 28.8359C167.43 27.2422 168.078 25.9141 168.891 24.8516C169.719 23.7891 170.664 22.9922 171.727 22.4609C172.805 21.9297 173.922 21.6641 175.078 21.6641C176.422 21.6641 177.602 22.0156 178.617 22.7188C179.633 23.4062 180.438 24.3906 181.031 25.6719C181.625 26.9531 181.992 28.5 182.133 30.3125C182.273 32.1094 182.148 34.1172 181.758 36.3359L170.555 36.3125C170.68 37.6562 170.922 38.7891 171.281 39.7109C171.656 40.6172 172.094 41.3516 172.594 41.9141C173.109 42.4766 173.664 42.8828 174.258 43.1328C174.852 43.3672 175.445 43.4844 176.039 43.4844C176.398 43.4844 176.758 43.4453 177.117 43.3672C177.492 43.2891 177.844 43.1875 178.172 43.0625C178.516 42.9375 178.828 42.7969 179.109 42.6406C179.391 42.4844 179.625 42.3359 179.812 42.1953L181.406 45.7578C181.062 45.9766 180.664 46.1875 180.211 46.3906C179.758 46.5938 179.273 46.7734 178.758 46.9297C178.258 47.0859 177.727 47.2109 177.164 47.3047C176.617 47.3984 176.078 47.4453 175.547 47.4453ZM177.914 32.3984C177.992 31.0859 177.961 30.0078 177.82 29.1641C177.695 28.3047 177.492 27.625 177.211 27.125C176.945 26.6094 176.617 26.2578 176.227 26.0703C175.836 25.8672 175.422 25.7656 174.984 25.7656C173.859 25.7656 172.891 26.3281 172.078 27.4531C171.281 28.5625 170.781 30.2109 170.578 32.3984H177.914ZM196.312 37.7422C196.312 36.0703 196.648 34.3516 197.32 32.5859C197.992 30.8047 199.023 29 200.414 27.1719C199.414 25.3125 198.68 23.6094 198.211 22.0625C197.742 20.5 197.508 19.0312 197.508 17.6562C197.508 16.4375 197.688 15.3125 198.047 14.2812C198.422 13.25 198.945 12.3594 199.617 11.6094C200.305 10.8594 201.141 10.2734 202.125 9.85156C203.109 9.42969 204.227 9.21875 205.477 9.21875C206.742 9.21875 207.891 9.42969 208.922 9.85156C209.953 10.2734 210.906 10.8594 211.781 11.6094L209.391 14.7031C208.812 14.25 208.211 13.9062 207.586 13.6719C206.961 13.4375 206.312 13.3203 205.641 13.3203C204.469 13.3203 203.531 13.6875 202.828 14.4219C202.125 15.1406 201.773 16.2344 201.773 17.7031C201.773 18.2969 201.852 18.9844 202.008 19.7656C202.164 20.5312 202.445 21.4297 202.852 22.4609C203.258 23.4922 203.82 24.6719 204.539 26C205.273 27.3125 206.211 28.7969 207.352 30.4531L211.219 36.1016C211.234 35.8672 211.242 35.625 211.242 35.375C211.258 35.125 211.266 34.8672 211.266 34.6016V29.9375H209.625V26.2578H219.094V29.9375H215.32L215.344 34.6016C215.344 36.9609 215.039 39.0156 214.43 40.7656L217.312 44.9609L214.219 47.4219L212.227 44.5859C211.383 45.5078 210.398 46.2109 209.273 46.6953C208.164 47.1797 206.922 47.4219 205.547 47.4219C204.125 47.4219 202.844 47.1719 201.703 46.6719C200.562 46.1719 199.594 45.4844 198.797 44.6094C198 43.7344 197.383 42.7109 196.945 41.5391C196.523 40.3672 196.312 39.1016 196.312 37.7422ZM200.578 37.4609C200.578 38.4766 200.711 39.3516 200.977 40.0859C201.242 40.8203 201.602 41.4297 202.055 41.9141C202.523 42.3984 203.07 42.7578 203.695 42.9922C204.32 43.2109 204.992 43.3203 205.711 43.3203C206.602 43.3203 207.391 43.1484 208.078 42.8047C208.766 42.4609 209.352 41.9141 209.836 41.1641L203.789 32.5391C203.586 32.2734 203.391 32.0078 203.203 31.7422C203.031 31.4609 202.859 31.1875 202.688 30.9219C201.828 32.1875 201.258 33.3828 200.977 34.5078C200.711 35.6172 200.578 36.6016 200.578 37.4609ZM233.578 9.21875C235.891 9.21875 237.922 9.53125 239.672 10.1562C241.438 10.7656 242.906 11.6016 244.078 12.6641C245.266 13.7109 246.156 14.9297 246.75 16.3203C247.344 17.7109 247.641 19.1719 247.641 20.7031C247.641 21.3594 247.555 22.0391 247.383 22.7422C247.211 23.4453 246.961 24.1406 246.633 24.8281C246.305 25.5 245.898 26.1562 245.414 26.7969C244.93 27.4375 244.383 28.0391 243.773 28.6016C245.367 29.5391 246.586 30.7031 247.43 32.0938C248.289 33.4688 248.719 35.0703 248.719 36.8984C248.719 38.4141 248.398 39.8203 247.758 41.1172C247.117 42.3984 246.164 43.5078 244.898 44.4453C243.633 45.3828 242.055 46.1172 240.164 46.6484C238.273 47.1641 236.078 47.4219 233.578 47.4219V9.21875ZM237.938 27.3594C238.516 27.3594 239.109 27.1953 239.719 26.8672C240.328 26.5234 240.883 26.0625 241.383 25.4844C241.898 24.8906 242.312 24.1875 242.625 23.375C242.953 22.5625 243.117 21.6797 243.117 20.7266C243.117 19.7422 242.953 18.8438 242.625 18.0312C242.312 17.2188 241.898 16.5234 241.383 15.9453C240.883 15.3516 240.328 14.8984 239.719 14.5859C239.109 14.2578 238.516 14.0938 237.938 14.0938V27.3594ZM237.938 42.5469C238.828 42.5469 239.656 42.4141 240.422 42.1484C241.188 41.8672 241.844 41.4844 242.391 41C242.953 40.5 243.391 39.9062 243.703 39.2188C244.031 38.5156 244.195 37.7422 244.195 36.8984C244.195 36.2266 244.031 35.5547 243.703 34.8828C243.391 34.2109 242.953 33.6094 242.391 33.0781C241.844 32.5312 241.188 32.0938 240.422 31.7656C239.656 31.4219 238.828 31.25 237.938 31.25V42.5469ZM254.695 22.1094H258.867V38.3281C258.867 41.5938 260.141 43.2266 262.688 43.2266C263.547 43.2266 264.312 43.0547 264.984 42.7109C265.672 42.3516 266.25 41.8672 266.719 41.2578V22.1094H270.891V47.4688L267.797 45.2656C267.078 45.8281 266.188 46.3281 265.125 46.7656C264.078 47.2031 262.938 47.4219 261.703 47.4219C260.734 47.4219 259.82 47.25 258.961 46.9062C258.117 46.5469 257.375 46.0312 256.734 45.3594C256.109 44.6719 255.609 43.8281 255.234 42.8281C254.875 41.8125 254.695 40.6484 254.695 39.3359V22.1094ZM277.711 21.6641L281.25 24.125C282.219 23.375 283.258 22.7891 284.367 22.3672C285.477 21.9297 286.625 21.7109 287.812 21.7109V26.0703C286.562 26.0703 285.453 26.2031 284.484 26.4688C283.531 26.7344 282.703 27.2422 282 27.9922V47H277.711V21.6641ZM296.695 52.1562C297.727 51.7344 298.617 51.2891 299.367 50.8203C300.133 50.3672 300.781 49.8828 301.312 49.3672C301.844 48.8516 302.266 48.3047 302.578 47.7266C302.906 47.1484 303.148 46.5312 303.305 45.875C302.414 46.3125 301.391 46.5312 300.234 46.5312C299.078 46.5312 297.969 46.2891 296.906 45.8047C295.859 45.3203 294.93 44.5703 294.117 43.5547C293.32 42.5391 292.68 41.25 292.195 39.6875C291.711 38.1094 291.469 36.2344 291.469 34.0625C291.469 31.8906 291.711 30.0234 292.195 28.4609C292.68 26.8828 293.32 25.5859 294.117 24.5703C294.93 23.5547 295.859 22.8047 296.906 22.3203C297.969 21.8359 299.078 21.5938 300.234 21.5938C301.969 21.5938 303.445 22.1094 304.664 23.1406L307.758 21.6406V43.1797C307.758 44.5859 307.586 45.8906 307.242 47.0938C306.914 48.3125 306.383 49.4375 305.648 50.4688C304.93 51.5 304 52.4375 302.859 53.2812C301.719 54.125 300.344 54.875 298.734 55.5312L296.695 52.1562ZM300.68 42.5938C301.227 42.5938 301.742 42.5078 302.227 42.3359C302.727 42.1484 303.18 41.8906 303.586 41.5625V26.5859C302.742 25.8828 301.773 25.5312 300.68 25.5312C300.039 25.5312 299.422 25.6641 298.828 25.9297C298.234 26.1953 297.703 26.6562 297.234 27.3125C296.781 27.9688 296.414 28.8438 296.133 29.9375C295.852 31.0312 295.711 32.4062 295.711 34.0625C295.711 35.7188 295.852 37.0938 296.133 38.1875C296.414 39.2812 296.781 40.1562 297.234 40.8125C297.703 41.4688 298.234 41.9297 298.828 42.1953C299.422 42.4609 300.039 42.5938 300.68 42.5938ZM322.594 47.4453C321.25 47.4453 320.008 47.1562 318.867 46.5781C317.742 45.9844 316.758 45.1328 315.914 44.0234C315.086 42.8984 314.438 41.5312 313.969 39.9219C313.5 38.2969 313.266 36.4531 313.266 34.3906C313.266 32.2812 313.508 30.4297 313.992 28.8359C314.477 27.2422 315.125 25.9141 315.938 24.8516C316.766 23.7891 317.711 22.9922 318.773 22.4609C319.852 21.9297 320.969 21.6641 322.125 21.6641C323.469 21.6641 324.648 22.0156 325.664 22.7188C326.68 23.4062 327.484 24.3906 328.078 25.6719C328.672 26.9531 329.039 28.5 329.18 30.3125C329.32 32.1094 329.195 34.1172 328.805 36.3359L317.602 36.3125C317.727 37.6562 317.969 38.7891 318.328 39.7109C318.703 40.6172 319.141 41.3516 319.641 41.9141C320.156 42.4766 320.711 42.8828 321.305 43.1328C321.898 43.3672 322.492 43.4844 323.086 43.4844C323.445 43.4844 323.805 43.4453 324.164 43.3672C324.539 43.2891 324.891 43.1875 325.219 43.0625C325.562 42.9375 325.875 42.7969 326.156 42.6406C326.438 42.4844 326.672 42.3359 326.859 42.1953L328.453 45.7578C328.109 45.9766 327.711 46.1875 327.258 46.3906C326.805 46.5938 326.32 46.7734 325.805 46.9297C325.305 47.0859 324.773 47.2109 324.211 47.3047C323.664 47.3984 323.125 47.4453 322.594 47.4453ZM324.961 32.3984C325.039 31.0859 325.008 30.0078 324.867 29.1641C324.742 28.3047 324.539 27.625 324.258 27.125C323.992 26.6094 323.664 26.2578 323.273 26.0703C322.883 25.8672 322.469 25.7656 322.031 25.7656C320.906 25.7656 319.938 26.3281 319.125 27.4531C318.328 28.5625 317.828 30.2109 317.625 32.3984H324.961ZM334.758 21.6641L338.297 24.125C339.266 23.375 340.305 22.7891 341.414 22.3672C342.523 21.9297 343.672 21.7109 344.859 21.7109V26.0703C343.609 26.0703 342.5 26.2031 341.531 26.4688C340.578 26.7344 339.75 27.2422 339.047 27.9922V47H334.758V21.6641Z" fill="black"/>
<path d="M8.98828 77.6465C10.9922 77.5645 12.7383 77.752 14.2266 78.209C15.7148 78.6543 16.9453 79.3223 17.918 80.2129C18.8906 81.1035 19.6172 82.1875 20.0977 83.4648C20.5781 84.7422 20.8184 86.1543 20.8184 87.7012C20.8184 89.0254 20.6426 90.25 20.291 91.375C19.9512 92.5 19.4238 93.4961 18.709 94.3633C18.0059 95.2188 17.1152 95.9277 16.0371 96.4902C14.9707 97.0527 13.7109 97.4336 12.2578 97.6328V106H8.98828V77.6465ZM12.2578 94.3105C13.0078 94.2402 13.6992 94.0586 14.332 93.7656C14.9648 93.4609 15.5098 93.0332 15.9668 92.4824C16.4238 91.9316 16.7812 91.2637 17.0391 90.4785C17.2969 89.6816 17.4258 88.7559 17.4258 87.7012C17.4258 86.6465 17.2969 85.7266 17.0391 84.9414C16.7812 84.1445 16.4238 83.4707 15.9668 82.9199C15.5098 82.3691 14.9648 81.9473 14.332 81.6543C13.6992 81.3496 13.0078 81.1621 12.2578 81.0918V94.3105ZM24.9668 77.998H28.0957V106H24.9668V77.998ZM32.5078 100.164C32.5078 98.2656 33.1758 96.7715 34.5117 95.6816C35.8594 94.5918 37.8398 93.9824 40.4531 93.8535V93.4844C40.4531 92.3828 40.1895 91.5215 39.6621 90.9004C39.1465 90.2793 38.4375 89.9688 37.5352 89.9688C37.0664 89.9688 36.5801 90.0566 36.0762 90.2324C35.584 90.3965 35.0918 90.6191 34.5996 90.9004L33.4043 88.0879C34.1426 87.7129 34.916 87.4375 35.7246 87.2617C36.5332 87.0859 37.2656 86.998 37.9219 86.998C38.7656 86.998 39.5332 87.1445 40.2246 87.4375C40.916 87.7305 41.5078 88.1523 42 88.7031C42.4922 89.2422 42.873 89.9043 43.1426 90.6895C43.4121 91.4746 43.5469 92.3652 43.5469 93.3613V106.334L41.2441 105.209C40.7988 105.561 40.3008 105.836 39.75 106.035C39.2109 106.234 38.625 106.334 37.9922 106.334C37.1953 106.334 36.457 106.176 35.7773 105.859C35.1094 105.531 34.5293 105.092 34.0371 104.541C33.5566 103.99 33.1816 103.34 32.9121 102.59C32.6426 101.84 32.5078 101.031 32.5078 100.164ZM35.6895 100.217C35.6895 100.65 35.7539 101.055 35.8828 101.43C36.0117 101.793 36.1934 102.115 36.4277 102.396C36.6621 102.666 36.9434 102.877 37.2715 103.029C37.5996 103.182 37.9629 103.258 38.3613 103.258C38.7715 103.258 39.1641 103.182 39.5391 103.029C39.9141 102.877 40.2188 102.684 40.4531 102.449V96.666C39.7031 96.6543 39.0352 96.7305 38.4492 96.8945C37.8633 97.0469 37.3652 97.2812 36.9551 97.5977C36.5449 97.9023 36.2285 98.2773 36.0059 98.7227C35.7949 99.1562 35.6895 99.6543 35.6895 100.217ZM49.2598 90.2852H47.8711V87.332H49.2598V81.1094H52.3887V87.332H55.377V90.2852H52.3887V98.6172C52.3887 99.3203 52.4414 99.9355 52.5469 100.463C52.6641 100.99 52.8516 101.441 53.1094 101.816C53.3672 102.18 53.7012 102.473 54.1113 102.695C54.5215 102.918 55.0254 103.082 55.623 103.188V106.316C53.4902 106.223 51.8965 105.549 50.8418 104.295C49.7871 103.029 49.2598 101.125 49.2598 98.582V90.2852ZM59.1211 100.164C59.1211 98.2656 59.7891 96.7715 61.125 95.6816C62.4727 94.5918 64.4531 93.9824 67.0664 93.8535V93.4844C67.0664 92.3828 66.8027 91.5215 66.2754 90.9004C65.7598 90.2793 65.0508 89.9688 64.1484 89.9688C63.6797 89.9688 63.1934 90.0566 62.6895 90.2324C62.1973 90.3965 61.7051 90.6191 61.2129 90.9004L60.0176 88.0879C60.7559 87.7129 61.5293 87.4375 62.3379 87.2617C63.1465 87.0859 63.8789 86.998 64.5352 86.998C65.3789 86.998 66.1465 87.1445 66.8379 87.4375C67.5293 87.7305 68.1211 88.1523 68.6133 88.7031C69.1055 89.2422 69.4863 89.9043 69.7559 90.6895C70.0254 91.4746 70.1602 92.3652 70.1602 93.3613V106.334L67.8574 105.209C67.4121 105.561 66.9141 105.836 66.3633 106.035C65.8242 106.234 65.2383 106.334 64.6055 106.334C63.8086 106.334 63.0703 106.176 62.3906 105.859C61.7227 105.531 61.1426 105.092 60.6504 104.541C60.1699 103.99 59.7949 103.34 59.5254 102.59C59.2559 101.84 59.1211 101.031 59.1211 100.164ZM62.3027 100.217C62.3027 100.65 62.3672 101.055 62.4961 101.43C62.625 101.793 62.8066 102.115 63.041 102.396C63.2754 102.666 63.5566 102.877 63.8848 103.029C64.2129 103.182 64.5762 103.258 64.9746 103.258C65.3848 103.258 65.7773 103.182 66.1523 103.029C66.5273 102.877 66.832 102.684 67.0664 102.449V96.666C66.3164 96.6543 65.6484 96.7305 65.0625 96.8945C64.4766 97.0469 63.9785 97.2812 63.5684 97.5977C63.1582 97.9023 62.8418 98.2773 62.6191 98.7227C62.4082 99.1562 62.3027 99.6543 62.3027 100.217ZM75.4863 90.2852H74.0625V87.332H75.4863V86.2773C75.4863 85.0703 75.6328 83.9512 75.9258 82.9199C76.2305 81.8887 76.6582 80.9922 77.209 80.2305C77.7715 79.457 78.4395 78.8477 79.2129 78.4023C79.998 77.9453 80.877 77.6992 81.8496 77.6641V80.7402C81.2988 80.8223 80.8184 81.0215 80.4082 81.3379C79.998 81.6426 79.6582 82.041 79.3887 82.5332C79.1309 83.0254 78.9375 83.5938 78.8086 84.2383C78.6797 84.8828 78.6152 85.5742 78.6152 86.3125V87.332H81.7441V90.2852H78.6152V106H75.4863V90.2852ZM90.9727 106.334C90.0938 106.334 89.25 106.135 88.4414 105.736C87.6328 105.338 86.9121 104.734 86.2793 103.926C85.6582 103.117 85.1602 102.109 84.7852 100.902C84.4102 99.6953 84.2227 98.2832 84.2227 96.666C84.2227 95.0488 84.4102 93.6367 84.7852 92.4297C85.1602 91.2227 85.6582 90.2148 86.2793 89.4062C86.9121 88.5977 87.6328 87.9941 88.4414 87.5957C89.25 87.1973 90.0938 86.998 90.9727 86.998C91.8516 86.998 92.6953 87.1973 93.5039 87.5957C94.3125 87.9941 95.0273 88.5977 95.6484 89.4062C96.2812 90.2148 96.7852 91.2227 97.1602 92.4297C97.5352 93.6367 97.7227 95.0488 97.7227 96.666C97.7227 98.2832 97.5352 99.6953 97.1602 100.902C96.7852 102.109 96.2812 103.117 95.6484 103.926C95.0273 104.734 94.3125 105.338 93.5039 105.736C92.6953 106.135 91.8516 106.334 90.9727 106.334ZM90.9727 103.258C91.3945 103.258 91.8105 103.146 92.2207 102.924C92.6309 102.689 93 102.314 93.3281 101.799C93.668 101.283 93.9375 100.604 94.1367 99.7598C94.3477 98.916 94.4531 97.8848 94.4531 96.666C94.4531 95.4473 94.3477 94.4219 94.1367 93.5898C93.9375 92.7461 93.668 92.0664 93.3281 91.5508C93 91.0234 92.6309 90.6484 92.2207 90.4258C91.8105 90.1914 91.3945 90.0742 90.9727 90.0742C90.5508 90.0742 90.1348 90.1914 89.7246 90.4258C89.3145 90.6484 88.9395 91.0234 88.5996 91.5508C88.2715 92.0664 88.002 92.7461 87.791 93.5898C87.5918 94.4219 87.4922 95.4473 87.4922 96.666C87.4922 97.8848 87.5918 98.916 87.791 99.7598C88.002 100.604 88.2715 101.283 88.5996 101.799C88.9395 102.314 89.3145 102.689 89.7246 102.924C90.1348 103.146 90.5508 103.258 90.9727 103.258ZM101.783 86.998L104.438 88.8438C105.164 88.2812 105.943 87.8418 106.775 87.5254C107.607 87.1973 108.469 87.0332 109.359 87.0332V90.3027C108.422 90.3027 107.59 90.4023 106.863 90.6016C106.148 90.8008 105.527 91.1816 105 91.7441V106H101.783V86.998ZM112.893 86.998L115.459 88.8262C115.717 88.5801 116.004 88.3516 116.32 88.1406C116.637 87.918 116.971 87.7305 117.322 87.5781C117.674 87.4141 118.031 87.2852 118.395 87.1914C118.77 87.0977 119.139 87.0508 119.502 87.0508C120.58 87.0508 121.5 87.25 122.262 87.6484C123.035 88.0352 123.656 88.6094 124.125 89.3711C124.371 89.0547 124.664 88.7559 125.004 88.4746C125.355 88.1934 125.73 87.9473 126.129 87.7363C126.527 87.5254 126.943 87.3613 127.377 87.2441C127.811 87.1152 128.238 87.0508 128.66 87.0508C130.535 87.0508 131.947 87.6426 132.896 88.8262C133.846 89.998 134.32 91.6914 134.32 93.9062V106H131.191V93.9414C131.191 92.7344 130.945 91.8145 130.453 91.1816C129.973 90.5488 129.258 90.2324 128.309 90.2324C127.781 90.2324 127.236 90.3555 126.674 90.6016C126.123 90.8477 125.619 91.2344 125.162 91.7617V106H122.033V93.9414C122.033 92.7344 121.787 91.8145 121.295 91.1816C120.814 90.5488 120.1 90.2324 119.15 90.2324C118.623 90.2324 118.084 90.3555 117.533 90.6016C116.982 90.8477 116.479 91.2285 116.021 91.7441V106H112.893V86.998ZM138.68 100.164C138.68 98.2656 139.348 96.7715 140.684 95.6816C142.031 94.5918 144.012 93.9824 146.625 93.8535V93.4844C146.625 92.3828 146.361 91.5215 145.834 90.9004C145.318 90.2793 144.609 89.9688 143.707 89.9688C143.238 89.9688 142.752 90.0566 142.248 90.2324C141.756 90.3965 141.264 90.6191 140.771 90.9004L139.576 88.0879C140.314 87.7129 141.088 87.4375 141.896 87.2617C142.705 87.0859 143.438 86.998 144.094 86.998C144.938 86.998 145.705 87.1445 146.396 87.4375C147.088 87.7305 147.68 88.1523 148.172 88.7031C148.664 89.2422 149.045 89.9043 149.314 90.6895C149.584 91.4746 149.719 92.3652 149.719 93.3613V106.334L147.416 105.209C146.971 105.561 146.473 105.836 145.922 106.035C145.383 106.234 144.797 106.334 144.164 106.334C143.367 106.334 142.629 106.176 141.949 105.859C141.281 105.531 140.701 105.092 140.209 104.541C139.729 103.99 139.354 103.34 139.084 102.59C138.814 101.84 138.68 101.031 138.68 100.164ZM141.861 100.217C141.861 100.65 141.926 101.055 142.055 101.43C142.184 101.793 142.365 102.115 142.6 102.396C142.834 102.666 143.115 102.877 143.443 103.029C143.771 103.182 144.135 103.258 144.533 103.258C144.943 103.258 145.336 103.182 145.711 103.029C146.086 102.877 146.391 102.684 146.625 102.449V96.666C145.875 96.6543 145.207 96.7305 144.621 96.8945C144.035 97.0469 143.537 97.2812 143.127 97.5977C142.717 97.9023 142.4 98.2773 142.178 98.7227C141.967 99.1562 141.861 99.6543 141.861 100.217ZM166.963 106.334C166.061 106.334 165.199 106.146 164.379 105.771C163.57 105.396 162.861 104.816 162.252 104.031C161.643 103.246 161.156 102.244 160.793 101.025C160.441 99.8066 160.266 98.3535 160.266 96.666C160.266 94.9785 160.441 93.5254 160.793 92.3066C161.156 91.0879 161.643 90.0859 162.252 89.3008C162.861 88.5156 163.57 87.9355 164.379 87.5605C165.199 87.1855 166.061 86.998 166.963 86.998C167.42 86.998 167.859 87.0566 168.281 87.1738C168.703 87.291 169.102 87.4609 169.477 87.6836V77.998H172.605V106.404L170.479 104.893C170.01 105.361 169.477 105.719 168.879 105.965C168.281 106.211 167.643 106.334 166.963 106.334ZM167.174 103.381C167.619 103.381 168.035 103.305 168.422 103.152C168.809 103 169.16 102.783 169.477 102.502V90.8477C168.82 90.25 168.053 89.9512 167.174 89.9512C166.693 89.9512 166.23 90.0566 165.785 90.2676C165.34 90.4785 164.941 90.8418 164.59 91.3574C164.25 91.8613 163.975 92.5469 163.764 93.4141C163.553 94.2695 163.447 95.3535 163.447 96.666C163.447 97.9785 163.553 99.0684 163.764 99.9355C163.975 100.791 164.25 101.477 164.59 101.992C164.941 102.496 165.34 102.854 165.785 103.064C166.23 103.275 166.693 103.381 167.174 103.381ZM183.715 106.334C182.707 106.334 181.775 106.117 180.92 105.684C180.076 105.238 179.338 104.6 178.705 103.768C178.084 102.924 177.598 101.898 177.246 100.691C176.895 99.4727 176.719 98.0898 176.719 96.543C176.719 94.9609 176.9 93.5723 177.264 92.377C177.627 91.1816 178.113 90.1855 178.723 89.3887C179.344 88.5918 180.053 87.9941 180.85 87.5957C181.658 87.1973 182.496 86.998 183.363 86.998C184.371 86.998 185.256 87.2617 186.018 87.7891C186.779 88.3047 187.383 89.043 187.828 90.0039C188.273 90.9648 188.549 92.125 188.654 93.4844C188.76 94.832 188.666 96.3379 188.373 98.002L179.971 97.9844C180.064 98.9922 180.246 99.8418 180.516 100.533C180.797 101.213 181.125 101.764 181.5 102.186C181.887 102.607 182.303 102.912 182.748 103.1C183.193 103.275 183.639 103.363 184.084 103.363C184.354 103.363 184.623 103.334 184.893 103.275C185.174 103.217 185.438 103.141 185.684 103.047C185.941 102.953 186.176 102.848 186.387 102.73C186.598 102.613 186.773 102.502 186.914 102.396L188.109 105.068C187.852 105.232 187.553 105.391 187.213 105.543C186.873 105.695 186.51 105.83 186.123 105.947C185.748 106.064 185.35 106.158 184.928 106.229C184.518 106.299 184.113 106.334 183.715 106.334ZM185.49 95.0488C185.549 94.0645 185.525 93.2559 185.42 92.623C185.326 91.9785 185.174 91.4688 184.963 91.0938C184.764 90.707 184.518 90.4434 184.225 90.3027C183.932 90.1504 183.621 90.0742 183.293 90.0742C182.449 90.0742 181.723 90.4961 181.113 91.3398C180.516 92.1719 180.141 93.4082 179.988 95.0488H185.49ZM198.305 100.164C198.305 98.2656 198.973 96.7715 200.309 95.6816C201.656 94.5918 203.637 93.9824 206.25 93.8535V93.4844C206.25 92.3828 205.986 91.5215 205.459 90.9004C204.943 90.2793 204.234 89.9688 203.332 89.9688C202.863 89.9688 202.377 90.0566 201.873 90.2324C201.381 90.3965 200.889 90.6191 200.396 90.9004L199.201 88.0879C199.939 87.7129 200.713 87.4375 201.521 87.2617C202.33 87.0859 203.062 86.998 203.719 86.998C204.562 86.998 205.33 87.1445 206.021 87.4375C206.713 87.7305 207.305 88.1523 207.797 88.7031C208.289 89.2422 208.67 89.9043 208.939 90.6895C209.209 91.4746 209.344 92.3652 209.344 93.3613V106.334L207.041 105.209C206.596 105.561 206.098 105.836 205.547 106.035C205.008 106.234 204.422 106.334 203.789 106.334C202.992 106.334 202.254 106.176 201.574 105.859C200.906 105.531 200.326 105.092 199.834 104.541C199.354 103.99 198.979 103.34 198.709 102.59C198.439 101.84 198.305 101.031 198.305 100.164ZM201.486 100.217C201.486 100.65 201.551 101.055 201.68 101.43C201.809 101.793 201.99 102.115 202.225 102.396C202.459 102.666 202.74 102.877 203.068 103.029C203.396 103.182 203.76 103.258 204.158 103.258C204.568 103.258 204.961 103.182 205.336 103.029C205.711 102.877 206.016 102.684 206.25 102.449V96.666C205.5 96.6543 204.832 96.7305 204.246 96.8945C203.66 97.0469 203.162 97.2812 202.752 97.5977C202.342 97.9023 202.025 98.2773 201.803 98.7227C201.592 99.1562 201.486 99.6543 201.486 100.217ZM215.057 90.2852H213.668V87.332H215.057V81.1094H218.186V87.332H221.174V90.2852H218.186V98.6172C218.186 99.3203 218.238 99.9355 218.344 100.463C218.461 100.99 218.648 101.441 218.906 101.816C219.164 102.18 219.498 102.473 219.908 102.695C220.318 102.918 220.822 103.082 221.42 103.188V106.316C219.287 106.223 217.693 105.549 216.639 104.295C215.584 103.029 215.057 101.125 215.057 98.582V90.2852ZM231.668 106.334C230.66 106.334 229.729 106.117 228.873 105.684C228.029 105.238 227.291 104.6 226.658 103.768C226.037 102.924 225.551 101.898 225.199 100.691C224.848 99.4727 224.672 98.0898 224.672 96.543C224.672 94.9609 224.854 93.5723 225.217 92.377C225.58 91.1816 226.066 90.1855 226.676 89.3887C227.297 88.5918 228.006 87.9941 228.803 87.5957C229.611 87.1973 230.449 86.998 231.316 86.998C232.324 86.998 233.209 87.2617 233.971 87.7891C234.732 88.3047 235.336 89.043 235.781 90.0039C236.227 90.9648 236.502 92.125 236.607 93.4844C236.713 94.832 236.619 96.3379 236.326 98.002L227.924 97.9844C228.018 98.9922 228.199 99.8418 228.469 100.533C228.75 101.213 229.078 101.764 229.453 102.186C229.84 102.607 230.256 102.912 230.701 103.1C231.146 103.275 231.592 103.363 232.037 103.363C232.307 103.363 232.576 103.334 232.846 103.275C233.127 103.217 233.391 103.141 233.637 103.047C233.895 102.953 234.129 102.848 234.34 102.73C234.551 102.613 234.727 102.502 234.867 102.396L236.062 105.068C235.805 105.232 235.506 105.391 235.166 105.543C234.826 105.695 234.463 105.83 234.076 105.947C233.701 106.064 233.303 106.158 232.881 106.229C232.471 106.299 232.066 106.334 231.668 106.334ZM233.443 95.0488C233.502 94.0645 233.479 93.2559 233.373 92.623C233.279 91.9785 233.127 91.4688 232.916 91.0938C232.717 90.707 232.471 90.4434 232.178 90.3027C231.885 90.1504 231.574 90.0742 231.246 90.0742C230.402 90.0742 229.676 90.4961 229.066 91.3398C228.469 92.1719 228.094 93.4082 227.941 95.0488H233.443ZM240.791 86.998L243.428 88.8789C243.686 88.6211 243.979 88.3809 244.307 88.1582C244.635 87.9355 244.98 87.7422 245.344 87.5781C245.707 87.4141 246.076 87.2852 246.451 87.1914C246.826 87.0977 247.201 87.0508 247.576 87.0508C249.451 87.0508 250.863 87.6426 251.812 88.8262C252.762 89.998 253.236 91.6914 253.236 93.9062V106H250.107V93.9414C250.107 92.7344 249.861 91.8145 249.369 91.1816C248.889 90.5488 248.174 90.2324 247.225 90.2324C246.662 90.2324 246.088 90.373 245.502 90.6543C244.928 90.9238 244.4 91.3516 243.92 91.9375V106H240.791V86.998ZM264.24 106.334C263.338 106.334 262.477 106.146 261.656 105.771C260.848 105.396 260.139 104.816 259.529 104.031C258.92 103.246 258.434 102.244 258.07 101.025C257.719 99.8066 257.543 98.3535 257.543 96.666C257.543 94.9785 257.719 93.5254 258.07 92.3066C258.434 91.0879 258.92 90.0859 259.529 89.3008C260.139 88.5156 260.848 87.9355 261.656 87.5605C262.477 87.1855 263.338 86.998 264.24 86.998C264.697 86.998 265.137 87.0566 265.559 87.1738C265.98 87.291 266.379 87.4609 266.754 87.6836V77.998H269.883V106.404L267.756 104.893C267.287 105.361 266.754 105.719 266.156 105.965C265.559 106.211 264.92 106.334 264.24 106.334ZM264.451 103.381C264.896 103.381 265.312 103.305 265.699 103.152C266.086 103 266.438 102.783 266.754 102.502V90.8477C266.098 90.25 265.33 89.9512 264.451 89.9512C263.971 89.9512 263.508 90.0566 263.062 90.2676C262.617 90.4785 262.219 90.8418 261.867 91.3574C261.527 91.8613 261.252 92.5469 261.041 93.4141C260.83 94.2695 260.725 95.3535 260.725 96.666C260.725 97.9785 260.83 99.0684 261.041 99.9355C261.252 100.791 261.527 101.477 261.867 101.992C262.219 102.496 262.617 102.854 263.062 103.064C263.508 103.275 263.971 103.381 264.451 103.381ZM277.055 84.1328C276.715 84.1328 276.404 84.0742 276.123 83.957C275.842 83.8398 275.602 83.6816 275.402 83.4824C275.203 83.2832 275.051 83.0547 274.945 82.7969C274.84 82.5273 274.787 82.2461 274.787 81.9531C274.787 81.6602 274.84 81.3848 274.945 81.127C275.051 80.8574 275.203 80.623 275.402 80.4238C275.602 80.2246 275.842 80.0664 276.123 79.9492C276.404 79.832 276.715 79.7734 277.055 79.7734C277.395 79.7734 277.705 79.832 277.986 79.9492C278.268 80.0664 278.508 80.2246 278.707 80.4238C278.906 80.623 279.059 80.8574 279.164 81.127C279.27 81.3848 279.322 81.6602 279.322 81.9531C279.322 82.2461 279.27 82.5273 279.164 82.7969C279.059 83.0547 278.906 83.2832 278.707 83.4824C278.508 83.6816 278.268 83.8398 277.986 83.957C277.705 84.0742 277.395 84.1328 277.055 84.1328ZM275.385 87.332H278.514V106H275.385V87.332ZM284.244 86.998L286.811 88.8262C287.068 88.5801 287.355 88.3516 287.672 88.1406C287.988 87.918 288.322 87.7305 288.674 87.5781C289.025 87.4141 289.383 87.2852 289.746 87.1914C290.121 87.0977 290.49 87.0508 290.854 87.0508C291.932 87.0508 292.852 87.25 293.613 87.6484C294.387 88.0352 295.008 88.6094 295.477 89.3711C295.723 89.0547 296.016 88.7559 296.355 88.4746C296.707 88.1934 297.082 87.9473 297.48 87.7363C297.879 87.5254 298.295 87.3613 298.729 87.2441C299.162 87.1152 299.59 87.0508 300.012 87.0508C301.887 87.0508 303.299 87.6426 304.248 88.8262C305.197 89.998 305.672 91.6914 305.672 93.9062V106H302.543V93.9414C302.543 92.7344 302.297 91.8145 301.805 91.1816C301.324 90.5488 300.609 90.2324 299.66 90.2324C299.133 90.2324 298.588 90.3555 298.025 90.6016C297.475 90.8477 296.971 91.2344 296.514 91.7617V106H293.385V93.9414C293.385 92.7344 293.139 91.8145 292.646 91.1816C292.166 90.5488 291.451 90.2324 290.502 90.2324C289.975 90.2324 289.436 90.3555 288.885 90.6016C288.334 90.8477 287.83 91.2285 287.373 91.7441V106H284.244V86.998ZM316.781 106.334C315.773 106.334 314.842 106.117 313.986 105.684C313.143 105.238 312.404 104.6 311.771 103.768C311.15 102.924 310.664 101.898 310.312 100.691C309.961 99.4727 309.785 98.0898 309.785 96.543C309.785 94.9609 309.967 93.5723 310.33 92.377C310.693 91.1816 311.18 90.1855 311.789 89.3887C312.41 88.5918 313.119 87.9941 313.916 87.5957C314.725 87.1973 315.562 86.998 316.43 86.998C317.438 86.998 318.322 87.2617 319.084 87.7891C319.846 88.3047 320.449 89.043 320.895 90.0039C321.34 90.9648 321.615 92.125 321.721 93.4844C321.826 94.832 321.732 96.3379 321.439 98.002L313.037 97.9844C313.131 98.9922 313.312 99.8418 313.582 100.533C313.863 101.213 314.191 101.764 314.566 102.186C314.953 102.607 315.369 102.912 315.814 103.1C316.26 103.275 316.705 103.363 317.15 103.363C317.42 103.363 317.689 103.334 317.959 103.275C318.24 103.217 318.504 103.141 318.75 103.047C319.008 102.953 319.242 102.848 319.453 102.73C319.664 102.613 319.84 102.502 319.98 102.396L321.176 105.068C320.918 105.232 320.619 105.391 320.279 105.543C319.939 105.695 319.576 105.83 319.189 105.947C318.814 106.064 318.416 106.158 317.994 106.229C317.584 106.299 317.18 106.334 316.781 106.334ZM318.557 95.0488C318.615 94.0645 318.592 93.2559 318.486 92.623C318.393 91.9785 318.24 91.4688 318.029 91.0938C317.83 90.707 317.584 90.4434 317.291 90.3027C316.998 90.1504 316.688 90.0742 316.359 90.0742C315.516 90.0742 314.789 90.4961 314.18 91.3398C313.582 92.1719 313.207 93.4082 313.055 95.0488H318.557ZM325.904 86.998L328.541 88.8789C328.799 88.6211 329.092 88.3809 329.42 88.1582C329.748 87.9355 330.094 87.7422 330.457 87.5781C330.82 87.4141 331.189 87.2852 331.564 87.1914C331.939 87.0977 332.314 87.0508 332.689 87.0508C334.564 87.0508 335.977 87.6426 336.926 88.8262C337.875 89.998 338.35 91.6914 338.35 93.9062V106H335.221V93.9414C335.221 92.7344 334.975 91.8145 334.482 91.1816C334.002 90.5488 333.287 90.2324 332.338 90.2324C331.775 90.2324 331.201 90.373 330.615 90.6543C330.041 90.9238 329.514 91.3516 329.033 91.9375V106H325.904V86.998ZM344.01 90.2852H342.621V87.332H344.01V81.1094H347.139V87.332H350.127V90.2852H347.139V98.6172C347.139 99.3203 347.191 99.9355 347.297 100.463C347.414 100.99 347.602 101.441 347.859 101.816C348.117 102.18 348.451 102.473 348.861 102.695C349.271 102.918 349.775 103.082 350.373 103.188V106.316C348.24 106.223 346.646 105.549 345.592 104.295C344.537 103.029 344.01 101.125 344.01 98.582V90.2852ZM360.305 106.334C359.426 106.334 358.582 106.135 357.773 105.736C356.965 105.338 356.244 104.734 355.611 103.926C354.99 103.117 354.492 102.109 354.117 100.902C353.742 99.6953 353.555 98.2832 353.555 96.666C353.555 95.0488 353.742 93.6367 354.117 92.4297C354.492 91.2227 354.99 90.2148 355.611 89.4062C356.244 88.5977 356.965 87.9941 357.773 87.5957C358.582 87.1973 359.426 86.998 360.305 86.998C361.184 86.998 362.027 87.1973 362.836 87.5957C363.645 87.9941 364.359 88.5977 364.98 89.4062C365.613 90.2148 366.117 91.2227 366.492 92.4297C366.867 93.6367 367.055 95.0488 367.055 96.666C367.055 98.2832 366.867 99.6953 366.492 100.902C366.117 102.109 365.613 103.117 364.98 103.926C364.359 104.734 363.645 105.338 362.836 105.736C362.027 106.135 361.184 106.334 360.305 106.334ZM360.305 103.258C360.727 103.258 361.143 103.146 361.553 102.924C361.963 102.689 362.332 102.314 362.66 101.799C363 101.283 363.27 100.604 363.469 99.7598C363.68 98.916 363.785 97.8848 363.785 96.666C363.785 95.4473 363.68 94.4219 363.469 93.5898C363.27 92.7461 363 92.0664 362.66 91.5508C362.332 91.0234 361.963 90.6484 361.553 90.4258C361.143 90.1914 360.727 90.0742 360.305 90.0742C359.883 90.0742 359.467 90.1914 359.057 90.4258C358.646 90.6484 358.271 91.0234 357.932 91.5508C357.604 92.0664 357.334 92.7461 357.123 93.5898C356.924 94.4219 356.824 95.4473 356.824 96.666C356.824 97.8848 356.924 98.916 357.123 99.7598C357.334 100.604 357.604 101.283 357.932 101.799C358.271 102.314 358.646 102.689 359.057 102.924C359.467 103.146 359.883 103.258 360.305 103.258Z" fill="black"/>
</svg>
