<svg width="194" height="216" viewBox="0 0 194 216" fill="none" xmlns="http://www.w3.org/2000/svg">
<g clip-path="url(#clip0)">
<path d="M23.8821 106.25C19.5119 103.655 15.5105 100.354 12.0079 96.4552C6.59252 90.6124 2.73713 83.2131 0.869646 75.0786C-1.73704 63.078 1.63307 50.4425 9.69999 41.971C14.4766 36.169 21.4851 33.3088 28.4979 34.2993C37.2279 35.6028 44.7872 42.8276 50.0721 49.68L40.2048 65.6193C37.6662 61.1596 34.2597 57.3923 30.2372 54.5959C28.1965 53.3211 25.7665 53.0675 23.5486 53.8978C21.3306 54.728 19.5318 56.5646 18.5972 58.9531C13.1786 70.349 20.9052 82.1172 29.4679 88.2993L23.8821 106.25Z" fill="#C03A2B"/>
<path d="M155.167 120.103C147.139 126.919 135.633 131.015 120.949 130.159C110.279 129.526 104.158 126.844 100.646 122.785C91.0128 111.724 100.98 90.72 90.7452 75.451C82.8058 64.2099 70.2861 58.2218 57.4976 59.549C54.5876 51.6165 53.9186 45.3228 55.9255 41.6359C55.9255 41.5986 55.9255 41.5986 55.959 41.5614V41.5241C56.2116 41.0949 56.503 40.6956 56.8286 40.3324C65.3245 30.8731 97.6021 51.5048 128.977 86.4C138.458 96.8823 147.213 108.149 155.167 120.103Z" fill="#BDC3C7"/>
<path d="M169.181 167.735C155.969 180.397 90.1766 238.084 41.4424 183.823C19.5338 159.468 17.9617 131.239 23.8821 106.25C25.3405 100.12 27.2076 94.1198 29.468 88.2993C32.5353 80.4525 36.1243 72.8715 40.2048 65.6193C43.6835 59.3628 47.1621 53.9255 50.0721 49.68C52.4804 46.1793 54.4873 43.4607 55.9255 41.6359C53.9186 45.3228 54.5876 51.6166 57.4976 59.549C63.3176 75.5255 78.1352 98.28 98.2042 120.625C98.94 121.444 99.6759 122.226 100.412 123.046C129.779 155.073 159.448 174.29 169.181 167.735Z" fill="#E64C3C"/>
<path d="M155.167 120.103C147.213 108.149 138.458 96.8823 128.977 86.4C97.6021 51.5048 65.3245 30.8731 56.8286 40.3324C56.503 40.6956 56.2116 41.0949 55.959 41.5241V41.5614C55.9255 41.5986 55.9255 41.5986 55.9255 41.6359C53.9186 45.3228 54.5876 51.6165 57.4976 59.549C63.3176 75.5255 78.1352 98.28 98.2041 120.625C98.94 121.444 99.6759 122.226 100.412 123.046C129.779 155.073 159.448 174.29 169.181 167.735L155.167 120.103Z" fill="#BDC3C7"/>
<path d="M152.594 39.019C156.512 34.6566 154.395 25.226 147.865 17.9553C141.335 10.6846 132.865 8.32692 128.946 12.6894C125.028 17.0518 127.146 26.4824 133.676 33.7531C140.206 41.0238 148.676 43.3815 152.594 39.019Z" fill="#A56A43"/>
<path d="M83.9886 168.108C74.6565 178.535 61.8124 181.477 53.5841 175.705C59.471 168.815 54.9889 163.601 61.1769 156.749C67.4651 149.71 72.1813 154.961 78.5031 147.96C84.6575 141.07 80.1755 135.894 86.0958 129.004C87.0384 129.68 87.9131 130.466 88.7048 131.35C96.4982 140.065 94.4244 156.525 83.9886 168.108Z" fill="#F29C1F"/>
<path d="M86.0958 129.004C80.1755 135.894 84.6576 141.07 78.5031 147.96C72.1814 154.961 67.4652 149.71 61.1769 156.749C54.989 163.601 59.471 168.815 53.5841 175.705C52.6415 175.029 51.7668 174.242 50.9752 173.359C43.1483 164.644 45.2555 148.183 55.6914 136.601C65.0234 126.174 77.8676 123.232 86.0958 129.004Z" fill="#E57E25"/>
<path d="M100.646 122.785L100.412 123.046C99.6758 122.226 98.94 121.444 98.2041 120.625C78.1351 98.28 63.3176 75.5255 57.4976 59.549C70.2861 58.2218 82.8058 64.2099 90.7451 75.451C100.98 90.72 91.0127 111.724 100.646 122.785Z" fill="#A56A43"/>
<path d="M155.167 120.103C147.213 108.149 138.458 96.8823 128.977 86.4C97.6021 51.5048 65.3245 30.8731 56.8286 40.3324C56.503 40.6956 56.2116 41.0949 55.959 41.5241V41.5614C55.9255 41.5986 55.9255 41.5986 55.9255 41.6359C53.9186 45.3228 54.5876 51.6165 57.4976 59.549C63.3176 75.5255 78.1352 98.28 98.2041 120.625C98.94 121.444 99.6759 122.226 100.412 123.046C129.779 155.073 159.448 174.29 169.181 167.735C172.623 164.961 167.609 155.483 167.609 155.483L155.167 120.103ZM105.094 117.72L102.92 115.374C100.546 112.73 98.271 110.086 95.9965 107.404C81.781 90.3848 70.3417 72.9186 64.8227 59.6979C64.4214 58.6924 64.02 57.7241 63.6855 56.7559C62.1852 53.4186 61.4389 49.7242 61.5114 45.9931L61.9796 45.5462C62.2673 45.4953 62.5581 45.4704 62.8493 45.4717C72.4824 45.4717 97.2676 61.6717 124.26 91.6883C133.237 101.631 141.554 112.285 149.146 123.567L149.347 124.2L160.117 160.808C150.885 158.015 134.93 147.401 116.835 129.786C112.988 126.099 109.075 122.04 105.094 117.72Z" fill="#ECF0F1"/>
<path d="M193.9 106.063C193.436 121.66 189.567 136.897 182.628 150.455C179.127 156.964 172.922 161.077 166.114 161.4H165.997C163.824 161.542 161.644 161.279 159.548 160.622C155.477 159.155 151.553 157.221 147.841 154.85C145.4 153.323 142.791 151.572 140.014 149.561C131.879 143.586 124.133 136.978 116.835 129.786C118.139 129.935 119.511 130.084 120.949 130.159C135.633 131.015 147.139 126.919 155.167 120.103C168.834 109.113 172.518 88.2125 163.596 72.2855C149.648 46.2538 196.642 45.8814 193.9 106.063Z" fill="#A56A43"/>
<path d="M169.817 138.314C164.047 146.033 156.426 151.767 147.841 154.85C145.4 153.323 142.791 151.572 140.014 149.561C149.63 147.506 158.327 141.857 164.666 133.548C165.848 131.964 167.96 131.747 169.382 133.063C170.804 134.38 170.999 136.731 169.817 138.314Z" fill="#805333"/>
</g>
<defs>
<clipPath id="clip0">
<rect width="194" height="216" fill="white"/>
</clipPath>
</defs>
</svg>
