<svg width="176" height="203" viewBox="0 0 176 203" fill="none" xmlns="http://www.w3.org/2000/svg">
<g clip-path="url(#clip0)">
<path d="M139.35 5.28673H124.683C122.658 5.28673 121.017 7.18033 121.017 9.51602V63.1757C121.02 65.1827 122.245 66.9106 123.95 67.3118L138.617 70.8643C138.858 70.9246 139.103 70.9559 139.35 70.9575C141.375 70.9575 143.017 69.0639 143.017 66.7282V9.51562C143.017 7.17994 141.375 5.28673 139.35 5.28673Z" fill="#FFCA28"/>
<path d="M122.762 5.54878C122.07 4.70625 121.107 4.22889 120.1 4.22928H105.433C103.481 4.22611 101.868 5.98927 101.767 8.23852L98.0999 88.5927C97.9947 90.9252 99.5488 92.9147 101.571 93.0361C101.636 93.04 101.701 93.042 101.767 93.0416C102.076 93.0452 102.384 93.0028 102.683 92.9147L117.35 88.6854C118.908 88.2362 120.032 86.6697 120.122 84.8201L123.789 8.69527C123.838 7.52803 123.467 6.38893 122.762 5.54878Z" fill="#FFB300"/>
<path d="M33.2884 30.3655C32.4678 29.7018 31.4479 29.454 30.4651 29.6804L12.1316 33.9097C10.1781 34.3383 8.87699 36.4844 9.1984 38.7479L16.5316 89.4979C16.8245 91.5564 18.3751 93.0611 20.1836 93.042H38.5168C40.5418 93.0412 42.1829 91.1468 42.1822 88.8111C42.1822 88.5966 42.1677 88.3822 42.1396 88.17L34.8063 33.1904C34.6558 32.0494 34.1075 31.0288 33.2884 30.3655Z" fill="#FFC107"/>
<path d="M164.826 34.2816L150.159 25.8234C148.348 24.779 146.146 25.6259 145.24 27.715C145.24 27.7162 145.239 27.717 145.239 27.7182L116.866 93.1602C115.959 95.2485 116.691 97.7895 118.501 98.8358C119.011 99.1304 119.574 99.2839 120.144 99.2839C120.375 99.2831 120.606 99.2577 120.833 99.2077L149.206 92.9738C150.508 92.6852 151.574 91.6083 151.993 90.1572L166.659 39.4073C167.24 37.4106 166.459 35.2256 164.826 34.2816Z" fill="#FFC107"/>
<path d="M142.071 55.1061L127.404 50.8768C125.439 50.3122 123.449 51.6916 122.96 53.9579C122.924 54.1212 122.898 54.2873 122.879 54.4546L119.213 88.2878C118.961 90.6056 120.387 92.7193 122.396 93.0087C122.556 93.0317 122.718 93.0428 122.879 93.0412H137.546C139.384 93.0626 140.952 91.5112 141.213 89.4126L144.879 59.8084C145.141 57.6388 143.922 55.5981 142.071 55.1061Z" fill="#FFB300"/>
<path d="M45.3663 54.4546C45.1147 52.1372 43.2815 50.4938 41.2723 50.784C41.1272 50.805 40.9835 50.8359 40.8416 50.8768L26.1748 55.1061C24.3505 55.6306 23.1656 57.6622 23.432 59.8088L27.0988 89.413C27.3597 91.5116 28.9276 93.063 30.7656 93.0416H45.4323C47.4574 93.0599 49.1115 91.1809 49.1273 88.8452C49.1287 88.6589 49.1191 88.4729 49.0991 88.2882L45.3663 54.4546Z" fill="#FFD54F"/>
<path d="M53.1615 9.01682C53.0374 7.80874 52.4682 6.72079 51.5995 6.0309C50.7346 5.33666 49.6501 5.11106 48.6295 5.41358L33.9631 9.64247C32.3303 10.1123 31.1842 11.8037 31.1839 13.7449L31.2279 27.0667L38.5611 82.0459C38.8361 84.1084 40.3744 85.6313 42.1839 85.6321H56.8506C58.8757 85.6484 60.5288 83.7682 60.5429 81.4326C60.5439 81.2557 60.5353 81.0793 60.5174 80.9041L53.1615 9.01682Z" fill="#FFC107"/>
<path d="M82.3555 114.686L71.5683 43.5351C71.5683 43.3828 71.517 43.2389 71.4803 43.1037L64.147 13.4995C63.5836 11.2562 61.55 9.96403 59.6051 10.6143C59.4019 10.6821 59.2039 10.7705 59.0138 10.8775L44.3471 19.3357C42.9965 20.1156 42.199 21.7709 42.3379 23.5055L50.5586 127.636C50.7419 129.962 52.5252 131.677 54.542 131.465C54.915 131.426 55.2807 131.321 55.6262 131.155L80.1561 119.313C81.7353 118.553 82.6487 116.632 82.3555 114.686Z" fill="#FFD54F"/>
<path d="M104.517 8.45858H89.8502C87.9472 8.44985 86.355 10.121 86.1834 12.3072L77.4862 123.856C77.304 126.182 78.7911 128.238 80.8079 128.448C80.9227 128.46 81.0375 128.466 81.1527 128.465H101.547C103.516 128.467 105.135 126.675 105.213 124.405L108.183 38.2317V12.6875C108.183 10.3518 106.542 8.45858 104.517 8.45858Z" fill="#FFD54F"/>
<path d="M123.913 42.4015L101.913 38.1723C100.902 37.9891 99.8702 38.2952 99.0606 39.018C98.2528 39.7439 97.7448 40.8267 97.6599 42.0039L91.933 121.039C91.7697 123.273 93.1468 125.266 95.0718 125.581L112.767 128.49C112.94 128.505 113.114 128.505 113.288 128.49C115.078 128.49 116.606 126.999 116.903 124.963L119.609 106.465V106.363L126.942 47.1554C127.215 44.8859 125.873 42.7786 123.913 42.4015Z" fill="#FFC107"/>
<path d="M92.5342 1.34488C91.8402 0.486493 90.8681 -0.000785658 89.8502 7.3095e-06H75.1835C73.3234 -0.016645 71.7473 1.57603 71.5167 3.70475L59.4167 115.481C59.1919 117.537 60.2909 119.477 62.0127 120.066L81.4607 126.706C81.8037 126.82 82.1595 126.877 82.5167 126.875C84.443 126.881 86.0446 125.167 86.1835 122.95L93.517 4.5338C93.5885 3.35941 93.2324 2.20366 92.5342 1.34488Z" fill="#FFB300"/>
<path d="M84.3502 37.8511C84.2526 35.5983 82.6391 33.8308 80.6835 33.8335H66.017C63.992 33.8304 62.3482 35.7212 62.3455 38.0569C62.3455 38.1322 62.3472 38.2075 62.3503 38.2825L66.017 118.637C66.104 120.489 67.2284 122.061 68.789 122.511L83.4558 126.74C83.748 126.828 84.0484 126.874 84.3506 126.875C86.3756 126.878 88.0194 124.987 88.0218 122.651C88.0218 122.579 88.0204 122.507 88.0174 122.435L84.3502 37.8511Z" fill="#FFCA28"/>
<path d="M158.798 86.2748C158.106 85.2099 157.019 84.583 155.865 84.583H119.198C117.173 84.583 115.531 86.4766 115.531 88.8123C115.531 105.162 104.04 118.417 89.8647 118.417H82.5315C68.3563 118.417 56.8647 105.163 56.8647 88.8123C56.8647 86.4766 55.223 84.583 53.198 84.583H16.5316C14.5066 84.5826 12.8645 86.4758 12.8641 88.8115C12.8641 89.2334 12.9188 89.6525 13.026 90.0557L39.1548 188.071C41.4967 196.966 48.6216 203.035 56.6815 203H115.685C123.745 203.035 130.87 196.966 133.212 188.071L159.355 90.0557C159.704 88.7651 159.497 87.36 158.798 86.2748Z" fill="#F44336"/>
</g>
<defs>
<clipPath id="clip0">
<rect width="176" height="203" fill="white"/>
</clipPath>
</defs>
</svg>
