<svg width="177" height="148" viewBox="0 0 177 148" fill="none" xmlns="http://www.w3.org/2000/svg">
<g clip-path="url(#clip0)">
<path d="M165.05 115.475H11.9496C5.35011 115.475 0 111.002 0 105.483V103.516C0 97.998 5.35011 93.5244 11.9496 93.5244H165.051C171.65 93.5244 177 97.998 177 103.516V105.483C177 111.002 171.65 115.475 165.05 115.475Z" fill="#E94444"/>
<path d="M176.999 103.515V105.483C176.999 111.002 171.652 115.477 165.051 115.477H158.058C164.659 115.477 170.007 111.002 170.007 105.483V103.515C170.007 97.9986 164.659 93.5242 158.058 93.5242H165.051C171.652 93.5242 176.999 97.9989 176.999 103.515Z" fill="#D83131"/>
<path d="M165.05 115.475H88.5H11.9496C11.9496 115.475 6.6698 136.793 36.7149 145.179C41.8617 146.616 47.2349 147.284 52.6233 147.284H88.5004H124.377C129.766 147.284 135.139 146.616 140.286 145.179C170.33 136.793 165.05 115.475 165.05 115.475Z" fill="#FE9738"/>
<path d="M140.285 145.178C135.137 146.616 129.764 147.286 124.377 147.286H116.267C121.657 147.286 127.03 146.616 132.178 145.178C162.22 136.792 156.94 115.477 156.94 115.477H165.051C165.051 115.477 170.331 136.792 140.285 145.178Z" fill="#FE860A"/>
<path d="M165.331 97.5043C165.331 102.493 158.398 105.197 153.789 102.03C151.895 100.728 149.657 99.696 146.111 99.696C136.502 99.696 136.502 106.06 126.894 106.06C117.285 106.06 117.285 99.696 107.676 99.696C98.068 99.696 98.068 106.06 88.4597 106.06C78.8517 106.06 78.8517 99.696 69.2433 99.696C59.6346 99.696 59.6346 106.06 50.0259 106.06C40.4176 106.06 40.4176 99.696 30.8092 99.696C27.2648 99.696 25.028 100.727 23.1337 102.029C18.5243 105.196 11.5919 102.492 11.5919 97.5035V85.6973H165.33V97.5043H165.331Z" fill="#BBEC6C"/>
<path d="M165.332 85.6978V97.5046C165.332 102.173 159.262 104.84 154.708 102.568C156.719 101.586 158.165 99.7848 158.165 97.5046V85.6978H165.332Z" fill="#A2E62E"/>
<path d="M11.6694 76.2375V85.7852H28.1509C31.5795 85.7852 34.3592 88.1094 34.3592 90.9763V118.474C34.3592 122.139 37.9129 125.111 42.2966 125.111C46.6803 125.111 50.2337 122.139 50.2337 118.474V90.9763C50.2337 88.1094 53.0134 85.7852 56.442 85.7852H165.331V76.2375H11.6694Z" fill="#FEE45A"/>
<path d="M158.165 76.2369H165.332V85.7843H158.165V76.2369Z" fill="#FEDF30"/>
<path d="M165.05 76.8911H11.9496C5.35011 76.8911 0 72.4179 0 66.8993V64.9322C0 59.414 5.35011 54.9404 11.9496 54.9404H165.051C171.65 54.9404 177 59.414 177 64.9322V66.8993C177 72.4179 171.65 76.8911 165.05 76.8911Z" fill="#9E5528"/>
<path d="M176.999 64.9316V66.8994C176.999 72.4187 171.652 76.8903 165.051 76.8903H158.058C164.659 76.8903 170.007 72.4187 170.007 66.8994V64.9316C170.007 59.4151 164.659 54.9407 158.058 54.9407H165.051C171.652 54.941 176.999 59.4154 176.999 64.9316Z" fill="#904D24"/>
<path d="M88.5 0.715576C28.8175 1.43777 8.76497 28.5081 2.14514 44.2371C-0.123394 49.6268 4.71318 55.2672 11.5463 55.2672H88.5H165.453C172.337 55.2672 177.111 49.57 174.815 44.1435C168.155 28.4009 148.064 1.43633 88.5 0.715576Z" fill="#FE9738"/>
<path d="M165.453 55.2678H164.602C166.92 53.1064 167.874 49.9597 166.582 46.8994C159.921 31.154 139.83 4.19142 80.2654 3.47095C64.8562 3.65539 52.0852 5.5995 41.5112 8.65083C53.5025 4.0453 68.8545 0.952185 88.5003 0.714142C148.065 1.43749 168.156 28.4003 174.817 44.1426C177.11 49.5698 172.335 55.2678 165.453 55.2678Z" fill="#FE860A"/>
<path d="M63.8646 23.5997C63.4496 23.5997 63.0288 23.5159 62.6379 23.3395C61.382 22.772 60.9143 21.4605 61.5929 20.4103L63.9094 16.8264C64.588 15.7763 66.1565 15.3852 67.4125 15.9527C68.6684 16.5201 69.1361 17.8316 68.4575 18.8818L66.141 22.4657C65.6737 23.189 64.7838 23.5997 63.8646 23.5997Z" fill="#E57917"/>
<path d="M88.4679 23.8444C87.0403 23.8444 85.883 22.8767 85.883 21.683V17.6092C85.883 16.4155 87.0403 15.4478 88.4679 15.4478C89.8955 15.4478 91.0528 16.4155 91.0528 17.6092V21.683C91.0528 22.8767 89.8955 23.8444 88.4679 23.8444Z" fill="#E57917"/>
<path d="M113.135 23.5697C112.244 23.5697 111.376 23.1836 110.897 22.4922L108.452 18.9679C107.736 17.9354 108.157 16.6129 109.392 16.014C110.627 15.4152 112.208 15.7668 112.924 16.7993L115.369 20.3236C116.085 21.3562 115.664 22.6787 114.43 23.2775C114.021 23.4758 113.576 23.5697 113.135 23.5697Z" fill="#E57917"/>
</g>
<defs>
<clipPath id="clip0">
<rect width="177" height="148" fill="white"/>
</clipPath>
</defs>
</svg>
