<svg width="50px" height="114" viewBox="0 0 127 114" fill="none" xmlns="http://www.w3.org/2000/svg">
<path d="M104.676 35.625C106.046 35.625 107.156 34.6282 107.156 33.3985C107.156 32.1688 106.046 31.1719 104.676 31.1719C103.306 31.1719 102.195 32.1688 102.195 33.3985C102.195 34.6282 103.306 35.625 104.676 35.625Z" fill="black"/>
<path d="M94.7539 35.625C96.1239 35.625 97.2344 34.6282 97.2344 33.3985C97.2344 32.1688 96.1239 31.1719 94.7539 31.1719C93.384 31.1719 92.2735 32.1688 92.2735 33.3985C92.2735 34.6282 93.384 35.625 94.7539 35.625Z" fill="black"/>
<path d="M84.832 35.625C86.2019 35.625 87.3125 34.6282 87.3125 33.3985C87.3125 32.1688 86.2019 31.1719 84.832 31.1719C83.4621 31.1719 82.3515 32.1688 82.3515 33.3985C82.3515 34.6282 83.4621 35.625 84.832 35.625Z" fill="black"/>
<path d="M74.9102 35.625C76.2801 35.625 77.3906 34.6282 77.3906 33.3985C77.3906 32.1688 76.2801 31.1719 74.9102 31.1719C73.5402 31.1719 72.4297 32.1688 72.4297 33.3985C72.4297 34.6282 73.5402 35.625 74.9102 35.625Z" fill="black"/>
<path d="M117.078 31.1719V26.7188H119.559C120.928 26.7188 122.039 25.7217 122.039 24.4922C122.039 15.8979 114.25 8.90625 104.676 8.90625H85.8242V6.67969C85.8242 2.99651 82.486 0 78.3828 0H48.6172C44.514 0 41.1758 2.99651 41.1758 6.67969V8.90625H22.3242C12.7501 8.90625 4.96094 15.8979 4.96094 24.4922C4.96094 25.7217 6.07144 26.7188 7.44141 26.7188H9.92188V31.1719C4.45095 31.1719 0 35.1672 0 40.0781C0 44.989 4.45095 48.9844 9.92188 48.9844V85.0547C9.92188 90.4975 14.2969 95.0375 20.0553 95.9974C20.4105 97.7149 21.2038 99.2958 22.3309 100.641H17.3633C10.5246 100.641 4.96094 105.635 4.96094 111.773C4.96094 113.003 6.07144 114 7.44141 114H52.3379C53.7079 114 54.8184 113.003 54.8184 111.773C54.8184 110.544 53.7079 109.547 52.3379 109.547H10.3468C11.3705 106.955 14.1292 105.094 17.3633 105.094H109.637C112.871 105.094 115.629 106.955 116.653 109.547H74.6621C73.2924 109.547 72.1816 110.544 72.1816 111.773C72.1816 113.003 73.2924 114 74.6621 114H119.559C120.928 114 122.039 113.003 122.039 111.773C122.039 105.635 116.475 100.641 109.637 100.641H104.669C105.796 99.296 106.589 97.7149 106.945 95.9976C112.703 95.0375 117.078 90.4975 117.078 85.0547V48.9844C122.549 48.9844 127 44.989 127 40.0781C127 35.1672 122.549 31.1719 117.078 31.1719ZM46.1367 6.67969C46.1367 5.45196 47.2495 4.45312 48.6172 4.45312H78.3828C79.7505 4.45312 80.8633 5.45196 80.8633 6.67969V8.90625H46.1367V6.67969ZM22.3242 13.3594H104.676C110.665 13.3594 115.677 17.1904 116.829 22.2656H10.1709C11.3236 17.1904 16.3349 13.3594 22.3242 13.3594ZM4.96094 40.0781C4.96094 37.6227 7.18641 35.625 9.92188 35.625V44.5312C7.18641 44.5312 4.96094 42.5336 4.96094 40.0781ZM24.8047 93.9609C24.8047 91.5293 28.6762 85.182 32.2463 80.1743C35.8165 85.1803 39.6875 91.5264 39.6875 93.9609C39.6875 97.6441 36.3493 100.641 32.2461 100.641C28.1429 100.641 24.8047 97.6441 24.8047 93.9609ZM51.3472 96.1875C51.7205 97.832 52.4991 99.3454 53.5848 100.641H42.1613C43.247 99.3454 44.0256 97.832 44.3989 96.1875H51.3472ZM82.6011 96.1875C82.9744 97.832 83.7533 99.3454 84.8387 100.641H73.4152C74.5009 99.3454 75.2795 97.832 75.6528 96.1875H82.6011ZM63.5 100.641C59.3968 100.641 56.0586 97.6441 56.0586 93.9609C56.0586 91.5293 59.9301 85.182 63.5002 80.1743C67.0704 85.1803 70.9414 91.5264 70.9414 93.9609C70.9414 97.6441 67.6032 100.641 63.5 100.641ZM87.3125 93.9609C87.3125 91.5293 91.184 85.182 94.7542 80.1743C98.3243 85.1803 102.195 91.5264 102.195 93.9609C102.195 97.6441 98.8571 100.641 94.7539 100.641C90.6507 100.641 87.3125 97.6441 87.3125 93.9609ZM112.117 85.0547C112.117 88.1031 109.829 90.6792 106.715 91.4772C104.934 85.6632 98.2896 76.8255 96.7946 74.8829C96.3317 74.281 95.5687 73.9219 94.7539 73.9219C93.9391 73.9219 93.1761 74.281 92.713 74.8829C91.1959 76.8543 84.3746 85.9275 82.7162 91.7344H75.5377C73.8793 85.9275 67.058 76.8543 65.5409 74.8829C65.0778 74.281 64.3148 73.9219 63.5 73.9219C62.6852 73.9219 61.9222 74.281 61.4591 74.8829C59.942 76.8543 53.1207 85.9275 51.4623 91.7344H44.2838C42.6254 85.9275 35.8041 76.8543 34.287 74.8829C33.8239 74.281 33.0609 73.9219 32.2461 73.9219C31.4313 73.9219 30.6683 74.281 30.2052 74.8829C28.7104 76.8255 22.0658 85.6632 20.285 91.4772C17.1705 90.6792 14.8828 88.1031 14.8828 85.0547V26.7188H112.117V85.0547ZM117.078 44.5312V35.625C119.814 35.625 122.039 37.6227 122.039 40.0781C122.039 42.5336 119.814 44.5312 117.078 44.5312Z" fill="black"/>
<path d="M63.5 114C64.8699 114 65.9805 113.003 65.9805 111.773C65.9805 110.544 64.8699 109.547 63.5 109.547C62.1301 109.547 61.0195 110.544 61.0195 111.773C61.0195 113.003 62.1301 114 63.5 114Z" fill="black"/>
</svg>
