<svg width="70" height="64" viewBox="0 0 70 64" fill="none" xmlns="http://www.w3.org/2000/svg">
<path d="M57.6953 20C58.4504 20 59.0625 19.4404 59.0625 18.75C59.0625 18.0596 58.4504 17.5 57.6953 17.5C56.9402 17.5 56.3281 18.0596 56.3281 18.75C56.3281 19.4404 56.9402 20 57.6953 20Z" fill="black"/>
<path d="M52.2266 20C52.9816 20 53.5938 19.4404 53.5938 18.75C53.5938 18.0596 52.9816 17.5 52.2266 17.5C51.4715 17.5 50.8594 18.0596 50.8594 18.75C50.8594 19.4404 51.4715 20 52.2266 20Z" fill="black"/>
<path d="M46.7578 20C47.5129 20 48.125 19.4404 48.125 18.75C48.125 18.0596 47.5129 17.5 46.7578 17.5C46.0027 17.5 45.3906 18.0596 45.3906 18.75C45.3906 19.4404 46.0027 20 46.7578 20Z" fill="black"/>
<path d="M41.2891 20C42.0441 20 42.6562 19.4404 42.6562 18.75C42.6562 18.0596 42.0441 17.5 41.2891 17.5C40.534 17.5 39.9219 18.0596 39.9219 18.75C39.9219 19.4404 40.534 20 41.2891 20Z" fill="black"/>
<path d="M64.5312 17.5V15H65.8984C66.6534 15 67.2656 14.4402 67.2656 13.75C67.2656 8.92513 62.9725 5 57.6953 5H47.3047V3.75C47.3047 1.68225 45.4647 0 43.2031 0H26.7969C24.5353 0 22.6953 1.68225 22.6953 3.75V5H12.3047C7.02762 5 2.73438 8.92513 2.73438 13.75C2.73438 14.4402 3.34646 15 4.10156 15H5.46875V17.5C2.45328 17.5 0 19.743 0 22.5C0 25.257 2.45328 27.5 5.46875 27.5V47.75C5.46875 50.8056 7.88019 53.3544 11.0541 53.8932C11.2499 54.8575 11.6871 55.745 12.3084 56.5H9.57031C5.80098 56.5 2.73438 59.3038 2.73438 62.75C2.73438 63.4402 3.34646 64 4.10156 64H28.8477C29.6028 64 30.2148 63.4402 30.2148 62.75C30.2148 62.0598 29.6028 61.5 28.8477 61.5H5.70295C6.26719 60.0449 7.78777 59 9.57031 59H60.4297C62.2121 59 63.7327 60.0449 64.2969 61.5H41.1523C40.3974 61.5 39.7852 62.0598 39.7852 62.75C39.7852 63.4402 40.3974 64 41.1523 64H65.8984C66.6534 64 67.2656 63.4402 67.2656 62.75C67.2656 59.3038 64.199 56.5 60.4297 56.5H57.6916C58.3129 55.7451 58.75 54.8575 58.9459 53.8934C62.1198 53.3544 64.5312 50.8056 64.5312 47.75V27.5C67.5467 27.5 70 25.257 70 22.5C70 19.743 67.5467 17.5 64.5312 17.5ZM25.4297 3.75C25.4297 3.06075 26.043 2.5 26.7969 2.5H43.2031C43.957 2.5 44.5703 3.06075 44.5703 3.75V5H25.4297V3.75ZM12.3047 7.5H57.6953C60.9965 7.5 63.7588 9.65075 64.3938 12.5H5.60602C6.24135 9.65075 9.00348 7.5 12.3047 7.5V7.5ZM2.73438 22.5C2.73438 21.1215 3.96102 20 5.46875 20V25C3.96102 25 2.73438 23.8785 2.73438 22.5ZM13.6719 52.75C13.6719 51.3849 15.8058 47.8215 17.7736 45.0101C19.7414 47.8205 21.875 51.3832 21.875 52.75C21.875 54.8177 20.035 56.5 17.7734 56.5C15.5118 56.5 13.6719 54.8177 13.6719 52.75ZM28.3016 54C28.5074 54.9233 28.9365 55.7729 29.5349 56.5H23.2385C23.8369 55.7729 24.2661 54.9233 24.4718 54H28.3016ZM45.5282 54C45.7339 54.9233 46.1632 55.7729 46.7615 56.5H40.4651C41.0635 55.7729 41.4926 54.9233 41.6984 54H45.5282ZM35 56.5C32.7384 56.5 30.8984 54.8177 30.8984 52.75C30.8984 51.3849 33.0323 47.8215 35.0001 45.0101C36.9679 47.8205 39.1016 51.3832 39.1016 52.75C39.1016 54.8177 37.2616 56.5 35 56.5V56.5ZM48.125 52.75C48.125 51.3849 50.2589 47.8215 52.2267 45.0101C54.1945 47.8205 56.3281 51.3832 56.3281 52.75C56.3281 54.8177 54.4882 56.5 52.2266 56.5C49.965 56.5 48.125 54.8177 48.125 52.75ZM61.7969 47.75C61.7969 49.4614 60.5359 50.9076 58.8193 51.3556C57.8378 48.0916 54.1754 43.1301 53.3513 42.0395C53.0962 41.7016 52.6757 41.5 52.2266 41.5C51.7774 41.5 51.3569 41.7016 51.1016 42.0395C50.2655 43.1463 46.5057 48.24 45.5916 51.5H41.635C40.7209 48.24 36.9611 43.1463 36.1249 42.0395C35.8697 41.7016 35.4491 41.5 35 41.5C34.5509 41.5 34.1303 41.7016 33.8751 42.0395C33.0389 43.1463 29.2791 48.24 28.365 51.5H24.4084C23.4943 48.24 19.7345 43.1463 18.8984 42.0395C18.6431 41.7016 18.2226 41.5 17.7734 41.5C17.3243 41.5 16.9038 41.7016 16.6485 42.0395C15.8246 43.1301 12.1622 48.0916 11.1807 51.3556C9.46408 50.9076 8.20312 49.4614 8.20312 47.75V15H61.7969V47.75ZM64.5312 25V20C66.039 20 67.2656 21.1215 67.2656 22.5C67.2656 23.8785 66.039 25 64.5312 25Z" fill="black"/>
<path d="M35 64C35.7551 64 36.3672 63.4404 36.3672 62.75C36.3672 62.0596 35.7551 61.5 35 61.5C34.2449 61.5 33.6328 62.0596 33.6328 62.75C33.6328 63.4404 34.2449 64 35 64Z" fill="black"/>
</svg>
