<svg width="194" height="184" viewBox="0 0 194 184" fill="none" xmlns="http://www.w3.org/2000/svg">
<g clip-path="url(#clip0)">
<path d="M193.803 91.8128C193.803 124.558 175.726 153.301 148.527 169.55C146.184 170.951 143.77 172.259 141.296 173.47C139.431 174.384 137.527 175.238 135.59 176.04C133.722 176.809 131.817 177.528 129.889 178.187C128.048 178.817 126.183 179.398 124.294 179.919C122.69 180.369 121.07 180.777 119.434 181.144C117.439 181.594 115.42 181.984 113.377 182.313C110.765 182.737 108.118 183.059 105.435 183.28C104.795 183.333 104.151 183.382 103.503 183.419C103.416 183.426 103.325 183.434 103.238 183.438C102.468 183.482 101.693 183.52 100.919 183.546C99.619 183.599 98.3114 183.625 96.9996 183.625C94.8304 183.625 92.677 183.557 90.5434 183.422C90.0891 183.393 89.6306 183.359 89.1763 183.325C86.2841 183.108 83.4314 182.767 80.6183 182.313C69.5274 180.522 59.0847 176.94 49.6219 171.896C47.749 170.895 45.9079 169.835 44.1141 168.718C39.0724 165.596 34.3588 162.04 30.0283 158.101C27.069 155.41 24.2875 152.544 21.7071 149.515C8.25369 133.75 0.197388 113.671 0.197388 91.8128C0.197388 41.1057 43.5374 0 97 0C100.102 0 103.172 0.138719 106.198 0.412203C106.202 0.408609 106.202 0.408609 106.206 0.412203C108.64 0.625672 111.046 0.929344 113.421 1.31927C122.568 2.79953 131.28 5.49772 139.36 9.23378C171.593 24.1335 193.803 55.5148 193.803 91.8128Z" fill="#8CC371"/>
<path d="M105.436 57.6283V183.655C104.796 183.707 104.152 183.756 103.504 183.794C103.417 183.801 103.326 183.809 103.239 183.812C102.468 183.857 101.694 183.895 100.919 183.921C99.6198 183.974 98.3118 184 97 184C94.8308 184 92.6775 183.932 90.5438 183.798C90.0895 183.768 89.6311 183.734 89.1768 183.7C86.2846 183.483 83.4318 183.142 80.6188 182.689C69.5278 180.898 59.0852 177.315 49.6224 172.271C47.7494 171.27 45.9083 170.21 44.1146 169.093C39.0729 165.971 34.3593 162.415 30.0287 158.476C27.0695 155.785 24.2879 152.544 21.7076 149.516V57.2535L105.436 57.6283Z" fill="#E6E2E0"/>
<path d="M44.1142 57.6283V169.092C39.0724 165.971 34.3588 162.414 30.0283 158.476C27.0691 155.785 24.2875 152.918 21.7072 149.89V57.6279L44.1142 57.6283Z" fill="#CCC9C7"/>
<path d="M105.436 89.1369V183.281C104.796 183.333 104.152 183.382 103.504 183.419C103.417 183.427 103.326 183.434 103.239 183.438C102.468 183.483 101.694 183.52 100.919 183.546C99.6194 183.599 98.3118 183.625 97 183.625C94.8308 183.625 92.6775 183.558 90.5438 183.423C90.0895 183.393 89.6311 183.359 89.1768 183.325C86.2846 183.108 83.4318 182.767 80.6188 182.314C69.5278 180.523 59.0852 176.94 49.6224 171.896C47.7494 170.895 45.9083 169.835 44.1146 168.718C39.0729 165.596 34.3593 162.04 30.0287 158.101C27.0695 155.411 24.2879 152.544 21.7076 149.516V89.1369H105.436Z" fill="#665F60"/>
<path d="M44.1142 89.1369V168.718C39.0724 165.596 34.3588 162.04 30.0283 158.101C27.0691 155.411 24.2875 152.544 21.7072 149.516V89.1369H44.1142Z" fill="#4D4848"/>
<path d="M52.1996 117.656C49.5268 117.656 48.2351 114.386 50.2831 112.734C52.3758 111.047 55.6506 112.877 55.08 115.435C54.7951 116.714 53.5803 117.656 52.1996 117.656Z" fill="#807878"/>
<path d="M70.4757 132.977C67.8185 132.977 66.5472 129.757 68.5179 128.091C69.5061 127.255 71.0127 127.159 72.1149 127.854C73.0519 128.444 73.554 129.538 73.3926 130.59C73.1853 131.942 71.916 132.977 70.4757 132.977Z" fill="#807878"/>
<path d="M43.3548 155.687C42.1476 155.687 41.0389 154.962 40.6043 153.896C40.1413 152.761 40.5263 151.435 41.5395 150.686C42.5303 149.953 43.9436 149.903 44.9902 150.564C46.014 151.212 46.5168 152.445 46.2114 153.577C45.8821 154.798 44.6889 155.687 43.3548 155.687Z" fill="#807878"/>
<path d="M78.1418 171.347C75.3985 171.347 74.1621 167.939 76.3299 166.345C78.4548 164.782 81.5845 166.632 81.0264 169.124C80.7403 170.398 79.5206 171.347 78.1418 171.347Z" fill="#807878"/>
<path d="M90.5245 141.146C89.2688 141.146 88.1165 140.357 87.727 139.227C87.3322 138.08 87.7649 136.797 88.7932 136.087C90.9655 134.588 94.0434 136.55 93.3829 139.03C93.0563 140.257 91.8612 141.146 90.5245 141.146Z" fill="#807878"/>
<path d="M135.658 18.8528V11.6096H135.653H105.027V18.8528H135.653H135.658Z" fill="#665F60"/>
<path d="M154.204 116.523C154.204 118.584 154.169 120.627 154.102 122.65C153.738 133.593 152.41 143.91 150.324 153.143C149.095 158.551 148.479 164.06 148.526 169.55C146.183 170.951 143.769 172.259 141.296 173.469C139.431 174.383 137.526 175.238 135.59 176.04C133.721 176.808 131.817 177.528 129.889 178.187C128.048 178.817 126.183 179.397 124.294 179.919C122.689 180.368 121.07 180.777 119.434 181.144C117.439 181.594 115.419 181.984 113.377 182.313C110.765 182.736 108.118 183.059 105.435 183.28C104.795 183.332 104.151 183.381 103.503 183.419C103.416 183.426 103.325 183.434 103.238 183.437C102.468 183.482 101.693 183.52 100.919 183.546C99.6186 183.598 98.311 183.624 96.9992 183.624C94.83 183.624 92.6767 183.557 90.543 183.422C92.815 173.488 92.6175 163.141 90.3532 153.143C89.3931 148.889 88.5909 144.411 87.9748 139.742C87.8759 139.022 87.785 138.299 87.702 137.568C87.1291 132.764 86.746 127.776 86.5759 122.65C86.5444 121.638 86.5168 120.622 86.5009 119.599C86.4849 118.58 86.477 117.553 86.477 116.523C86.477 106.892 87.2196 97.6655 88.583 89.1361C88.8239 87.5883 89.0926 86.0631 89.3771 84.5606C89.4995 83.9123 89.6299 83.264 89.7602 82.6232C90.9613 76.7808 92.463 71.3284 94.2169 66.3855C94.5685 65.3962 94.9319 64.4295 95.2994 63.4814C95.3904 63.2453 95.4851 63.0092 95.5798 62.7771C96.0501 61.6041 96.5358 60.4688 97.0337 59.363C97.2353 58.9246 97.4369 58.4897 97.6422 58.0588C97.7688 57.7889 97.895 57.523 98.0177 57.2531C98.2151 56.8334 98.405 56.4136 98.5906 55.9903C99.5114 53.9106 100.333 51.8007 101.06 49.657C101.242 49.1248 101.415 48.5929 101.581 48.0567C101.866 47.1536 102.135 46.2465 102.383 45.3359C102.387 45.3247 102.387 45.3132 102.391 45.3021C102.526 44.8148 102.652 44.3239 102.775 43.8369C102.897 43.346 103.016 42.8551 103.13 42.3603C103.474 40.8836 103.77 39.3997 104.019 37.9044C104.094 37.4584 104.165 37.0163 104.229 36.5704C104.237 36.5179 104.245 36.4618 104.253 36.4094C104.32 35.9483 104.383 35.4876 104.442 35.0265C104.446 34.9852 104.45 34.9478 104.458 34.9065C104.514 34.4493 104.569 33.9882 104.616 33.5311C104.889 30.9752 105.027 28.4082 105.027 25.8301V18.8535H135.66V25.8312C135.66 33.9555 137.019 42.0052 139.635 49.7062C140.599 52.5431 141.733 55.3276 143.033 58.0592C146.304 64.9319 148.995 73.2737 150.915 82.6239C153.027 92.888 154.204 104.386 154.204 116.523Z" fill="#665F60"/>
<path d="M111.682 11.6096V25.8312C111.682 33.9408 110.916 41.979 109.442 49.6574C109.438 49.676 109.438 49.6872 109.434 49.7062C108.889 52.5467 108.244 55.3312 107.514 58.0592C106.763 60.8472 106.067 63.8753 105.435 67.1129C104.503 71.861 103.701 77.0662 103.057 82.6236C102.812 84.7446 102.587 86.9145 102.389 89.1365C101.619 97.6655 101.2 106.892 101.2 116.523C101.2 118.584 101.22 120.626 101.259 122.65C101.461 133.593 102.211 143.909 103.393 153.143C104.673 163.141 104.784 173.484 103.503 183.419C103.416 183.426 103.325 183.434 103.238 183.437C102.468 183.482 101.694 183.52 100.919 183.546C99.619 183.598 98.3114 183.624 96.9996 183.624C94.8304 183.624 92.6771 183.557 90.5435 183.422C92.8154 173.488 92.618 163.141 90.3536 153.143C89.3935 148.889 88.5913 144.411 87.9752 139.742C87.8763 139.022 87.7854 138.299 87.7024 137.568C87.1295 132.764 86.7464 127.776 86.5763 122.65C86.5449 121.638 86.5172 120.622 86.5013 119.599C86.4816 118.58 86.4736 117.553 86.4736 116.523C86.4736 106.892 87.2163 97.6656 88.5796 89.1361C88.8206 87.5883 89.0892 86.0631 89.3776 84.5606C89.5 83.9123 89.6303 83.264 89.7606 82.6232C90.9618 76.7808 92.4634 71.3284 94.2173 66.3856C94.569 65.3962 94.9285 64.4295 95.2999 63.4814C95.3908 63.2453 95.4855 63.0092 95.5803 62.7771C96.0505 61.6041 96.5325 60.4688 97.0341 59.363C97.2315 58.9246 97.4331 58.4897 97.6385 58.0588C97.765 57.7889 97.8912 57.523 98.014 57.2531H98.0178C98.2152 56.8334 98.405 56.4136 98.5907 55.9903C99.5073 53.9106 100.329 51.8007 101.052 49.657C101.704 47.7383 102.277 45.797 102.775 43.8373C102.897 43.3464 103.016 42.8555 103.13 42.3606C103.501 40.7567 103.817 39.1417 104.078 37.5152C104.13 37.2003 104.185 36.8855 104.228 36.5707C104.236 36.5183 104.244 36.4622 104.252 36.4097C104.319 35.9486 104.383 35.4879 104.442 35.0268C104.446 34.9855 104.45 34.9481 104.458 34.9068C104.513 34.4497 104.569 33.9886 104.616 33.5315C104.889 30.9756 105.027 28.4086 105.027 25.8304V11.6096H111.682Z" fill="#4D4848"/>
<path d="M135.658 11.9844H135.653H105.027V19.2273H135.653H135.658V11.9844Z" fill="#CCC9C7"/>
<path d="M139.637 50.0807H101.205L101.06 50.0336C103.645 42.4134 105.005 34.4421 105.023 26.3932C105.028 26.3289 105.028 26.2689 105.028 26.2045V19.2269H135.66V26.2042C135.66 34.33 137.02 42.3789 139.637 50.0807Z" fill="#E6E2E0"/>
<path d="M154.205 116.522C154.205 118.583 154.169 120.627 154.101 122.65H86.5778C86.51 120.627 86.4781 118.583 86.4781 116.522C86.4781 104.384 87.6577 92.8898 89.7633 82.625H150.916C153.026 92.8898 154.205 104.384 154.205 116.522Z" fill="#F9395E"/>
<path d="M130.043 28.005C131.635 28.005 132.925 30.7557 132.925 34.1496V34.3498C132.925 39.661 133.057 44.9355 133.315 50.0821H126.77C127.027 44.937 127.16 39.6624 127.16 34.3498V34.1496C127.16 30.7557 128.45 28.005 130.043 28.005Z" fill="#F3EEED"/>
<path d="M126.769 49.7073H133.314C133.415 51.7248 133.535 53.7222 133.674 55.6949C133.855 58.2755 134.068 60.8091 134.313 63.292C134.855 68.7962 135.312 75.334 135.661 82.6264H124.422C124.77 75.3343 125.228 68.7966 125.77 63.292C126.016 60.7965 126.23 58.2457 126.413 55.6521C126.55 53.6942 126.67 51.7108 126.769 49.7073Z" fill="#AA9F9F"/>
<path d="M135.686 149.778C135.282 158.446 135.227 167.399 135.591 176.04C133.722 176.809 131.818 177.528 129.889 178.187C128.048 178.817 126.183 179.398 124.295 179.919C124.864 170.1 124.864 159.75 124.401 149.778C124.01 141.552 123.769 132.375 123.69 122.646H136.393C136.321 132.375 136.073 141.552 135.686 149.778Z" fill="#AA9F9F"/>
<path d="M124.422 82.6268H135.661C135.708 83.6172 135.753 84.6213 135.797 85.6387C136.194 94.9735 136.416 105.429 136.416 116.467C136.416 118.345 136.409 120.202 136.396 122.042C136.395 122.244 136.393 122.446 136.392 122.648H123.692C123.69 122.446 123.689 122.244 123.688 122.042C123.675 120.202 123.668 118.345 123.668 116.467C123.668 105.428 123.89 94.9735 124.287 85.6387C124.33 84.6213 124.375 83.6172 124.422 82.6268Z" fill="#F96286"/>
<path d="M103.058 82.625C101.869 92.8898 101.2 104.384 101.2 116.522C101.2 118.583 101.218 120.627 101.259 122.65H86.5774C86.5096 120.627 86.4778 118.583 86.4778 116.522C86.4778 104.384 87.6573 92.8898 89.7629 82.625H103.058Z" fill="#D92F52"/>
<path d="M111.684 11.9841V26.2045C111.684 34.3174 110.916 42.3534 109.443 50.0336C109.438 50.0509 109.438 50.0634 109.433 50.0807H101.205L101.06 50.0336C103.645 42.4134 105.005 34.4421 105.023 26.3932C105.027 26.3289 105.027 26.2689 105.027 26.2045V11.9841H111.684Z" fill="#CCC9C7"/>
<path d="M101.315 6.00048V11.6096H105.022H105.028H135.653H135.659H139.361V6.00048C139.361 2.85883 136.675 0.311935 133.363 0.311935H107.313C104.001 0.312295 101.315 2.85883 101.315 6.00048Z" fill="#F9395E"/>
<path d="M116.826 0.312294H107.313C104.001 0.312294 101.315 2.85954 101.315 6.00084V11.6096H105.023H105.028H110.829V6.00048C110.829 2.85883 113.514 0.312294 116.826 0.312294Z" fill="#D92F52"/>
</g>
<defs>
<clipPath id="clip0">
<rect width="194" height="184" fill="white"/>
</clipPath>
</defs>
</svg>
