<svg width="159" height="261" viewBox="0 0 159 261" fill="none" xmlns="http://www.w3.org/2000/svg">
<path d="M88.493 27.0893L95.0067 17.6218C95.9249 16.287 95.6271 14.5213 94.3137 13.515L80.8743 3.22032C80.2372 2.73222 79.3198 2.73222 78.6827 3.22032L65.2433 13.515C63.9299 14.5209 63.6317 16.287 64.5503 17.6218L71.064 27.0893L77.2897 36.4996H85.0463L88.493 27.0893Z" fill="#3DF70E"/>
<path d="M101.471 34.9659V45.9091H58.0835V34.9659C58.0835 30.6146 61.8606 27.09 66.5147 27.09H93.0402C97.6984 27.0896 101.471 30.6142 101.471 34.9659Z" fill="#3DF70E"/>
<path d="M108.32 47.7339V68.5648H51.2349V47.7339C51.2349 44.2017 54.3022 41.3364 58.0834 41.3364H101.471C105.257 41.3364 108.32 44.2021 108.32 47.7339Z" fill="#3DF70E"/>
<path d="M141.986 101.08C141.986 74.6107 119.015 53.1533 90.6798 53.1533H69.8179C41.4821 53.1533 18.5118 74.6111 18.5118 101.08V139.009H141.986V101.08Z" fill="#3DF70E"/>
<path d="M126.288 172.032C126.288 173.681 125.926 175.313 125.225 176.826L123.695 180.131C123.281 181.027 123.067 181.992 123.067 182.967V184.761C123.067 188.707 126.492 191.906 130.716 191.906C134.94 191.906 138.364 188.707 138.364 184.761V154.038L151.973 140.204C156.122 135.986 156.98 129.785 154.115 124.72C149.828 117.142 139.175 115.147 132.092 120.595L129.066 122.922L110.274 136.606L126.614 141.729L126.288 172.032Z" fill="#FDD79B"/>
<path d="M33.3943 172.032C33.3943 173.681 33.7557 175.313 34.4565 176.826L35.9865 180.132C36.4009 181.027 36.6147 181.992 36.6147 182.967V184.761C36.6147 188.707 33.1904 191.906 28.9662 191.906C24.742 191.906 21.3177 188.707 21.3177 184.761V154.038L7.70947 140.204C3.55994 135.986 2.70213 129.785 5.56761 124.72C9.8546 117.142 20.5072 115.146 27.5908 120.594L30.6161 122.921L52.169 139.463L32.8763 141.195L33.3943 172.032Z" fill="#FDD79B"/>
<path d="M129.315 128.555V138.29C129.315 147.587 126.255 156.66 120.553 164.276L107.594 181.587C102.752 188.053 94.835 191.905 86.3834 191.905H73.1716C64.72 191.905 56.8027 188.053 51.961 181.587L39.0021 164.276C33.2997 156.66 30.2405 147.587 30.2405 138.29V128.555C30.2405 126.672 30.3669 124.79 30.6157 122.923L32.7164 107.248C34.6335 92.936 48.555 82.7587 63.8838 84.4542L78.9597 86.1232C79.5022 86.1841 80.0528 86.1841 80.5994 86.1232L95.6712 84.4542C111 82.7587 124.921 92.936 126.839 107.248L128.939 122.923C129.192 124.79 129.315 126.672 129.315 128.555Z" fill="#FDDEB0"/>
<path d="M30.7549 122.857C32.7711 107.806 47.4121 97.1026 63.5334 98.8858L79.3888 100.641C79.9594 100.705 80.5386 100.705 81.1134 100.641L96.9642 98.8858C110.745 97.3613 123.437 104.965 128.093 116.605L126.839 107.247C124.922 92.9356 111 82.7583 95.6716 84.4539L80.5998 86.1228C80.0532 86.1838 79.5026 86.1838 78.9601 86.1228L63.8842 84.4539C48.5555 82.7583 34.634 92.9356 32.7168 107.247L30.6162 122.923C30.4734 123.993 30.3759 125.069 30.3143 126.146L30.7549 122.857Z" fill="#FDD79B"/>
<path d="M89.8819 121.023C90.5309 121.023 90.8144 121.799 90.2914 122.159C88.4894 123.398 87.355 125.389 87.355 127.583V139.654L91.6416 144.047C93.5216 145.974 93.5509 148.913 91.7097 150.873C90.5256 152.133 88.7561 152.771 86.9724 152.582L84.1118 152.278L81.2382 154.126C80.3592 154.691 79.1979 154.691 78.3189 154.126L75.4444 152.278L72.5838 152.581C70.8005 152.771 69.0306 152.132 67.8465 150.872C66.0053 148.913 66.0346 145.974 67.9146 144.047L72.2012 139.653V127.582C72.2012 125.388 71.0669 123.398 69.2648 122.159C68.7418 121.799 69.0253 121.023 69.6743 121.023H89.8819V121.023Z" fill="#FDD79B"/>
<path d="M22.5565 134.201C21.684 133.677 21.1631 132.786 21.1631 131.817V128.998C21.1631 127.42 19.7938 126.14 18.1039 126.14C16.414 126.14 15.0447 127.42 15.0447 128.998V131.817C15.0447 134.74 16.6163 137.429 19.2481 139.009C19.76 139.317 20.3331 139.463 20.8996 139.463C21.9059 139.463 22.8914 139 23.4755 138.151C24.3892 136.823 23.9776 135.055 22.5565 134.201Z" fill="black"/>
<path d="M156.819 123.385C154.391 119.093 150.11 116.065 145.045 115.033V101.081C145.045 88.9962 140.421 77.286 132.025 68.1069C130.928 66.9074 128.997 66.7653 127.712 67.7907C126.427 68.816 126.276 70.6198 127.373 71.8197C134.824 79.9646 138.927 90.3561 138.927 101.08V114.795C136.208 115.139 133.602 116.086 131.307 117.575L129.875 106.891C127.757 91.0789 112.255 79.7406 95.3118 81.6168L80.238 83.2853C79.9329 83.3192 79.6237 83.3192 79.3186 83.2853L64.2448 81.6168C47.3012 79.7398 31.7999 91.0793 29.6813 106.891L28.2597 117.501C26.2248 116.203 23.9495 115.33 21.5711 114.92V101.08C21.5711 94.0254 23.2691 87.2682 26.6184 80.9957C27.3726 79.5832 26.7579 77.8674 25.2462 77.1629C23.7333 76.4584 21.8966 77.0322 21.1428 78.4447C17.3669 85.5166 15.4526 93.1323 15.4526 101.08V114.886C15.278 114.914 15.1034 114.938 14.9293 114.97C9.73594 115.943 5.33759 119.01 2.86288 123.385C-0.599349 129.505 0.443233 137.041 5.4571 142.137L18.2589 155.152V184.761C18.2589 190.277 23.0623 194.763 28.9666 194.763C34.8709 194.763 39.6743 190.276 39.6743 184.761V182.967C39.6743 181.594 39.3782 180.258 38.7945 178.998L37.2645 175.692C36.7269 174.53 36.454 173.299 36.454 172.032V165.856C36.4691 165.876 36.4825 165.896 36.4972 165.916L49.4549 183.223C54.8656 190.449 63.7313 194.764 73.1716 194.764H86.3858C95.8258 194.764 104.692 190.449 110.103 183.223L123.061 165.916C123.119 165.839 123.172 165.759 123.229 165.682V172.032C123.229 173.299 122.956 174.53 122.418 175.693L120.888 178.997C120.304 180.258 120.008 181.594 120.008 182.967V184.761C120.008 190.277 124.812 194.763 130.716 194.763C136.62 194.763 141.424 190.276 141.424 184.761V172.309C141.424 170.731 140.054 169.451 138.365 169.451C136.675 169.451 135.305 170.731 135.305 172.309V184.761C135.305 187.125 133.247 189.048 130.716 189.048C128.185 189.048 126.127 187.125 126.127 184.761V182.967C126.127 182.379 126.254 181.807 126.504 181.266L128.034 177.961C128.905 176.079 129.348 174.084 129.348 172.032V155.291C129.348 155.1 129.327 154.915 129.288 154.734C131.323 149.504 132.377 143.959 132.377 138.289V128.554C132.377 127.118 132.304 125.673 132.167 124.239L134.037 122.801C136.7 120.752 140.168 119.941 143.551 120.575C146.934 121.209 149.798 123.206 151.41 126.056C153.666 130.042 152.986 134.951 149.721 138.271L136.112 152.105C135.594 152.632 135.305 153.322 135.305 154.039V160.131C135.305 161.709 136.675 162.989 138.365 162.989C140.054 162.989 141.424 161.709 141.424 160.131V155.152L154.226 142.138C159.239 137.041 160.281 129.504 156.819 123.385ZM31.649 177.96L33.1786 181.266C33.429 181.807 33.5559 182.379 33.5559 182.967V184.761C33.5559 187.125 31.4972 189.048 28.9666 189.048C26.436 189.048 24.3774 187.125 24.3774 184.761V154.038C24.3774 153.322 24.0894 152.632 23.5706 152.104L9.96232 138.271C6.69629 134.951 6.01714 130.042 8.27199 126.056C9.884 123.206 12.7491 121.208 16.1322 120.575C19.5144 119.941 22.9832 120.752 25.6459 122.801L27.3991 124.149C27.2555 125.613 27.1813 127.089 27.1813 128.554V138.289C27.1813 144.041 28.2683 149.663 30.3604 154.96C30.347 155.069 30.3351 155.179 30.3351 155.292V172.032C30.3351 174.084 30.7773 176.079 31.649 177.96ZM118.046 162.64L105.088 179.947C100.821 185.645 93.8291 189.048 86.385 189.048H73.1708C65.7263 189.048 58.7345 185.645 54.4683 179.947L41.5103 162.64C36.1383 155.465 33.2989 147.045 33.2989 138.289V128.553C33.2989 126.795 33.4176 125.02 33.6513 123.276L35.7516 107.6C37.3301 95.8193 48.1569 87.1291 60.5766 87.1291C61.5502 87.1291 62.5341 87.1829 63.5236 87.2922L78.5975 88.9608C79.3806 89.0476 80.174 89.0476 80.9572 88.9608L96.031 87.2922C109.64 85.7852 122.101 94.8957 123.803 107.6L125.904 123.276C126.137 125.02 126.256 126.795 126.256 128.553V138.289C126.257 147.045 123.418 155.465 118.046 162.64Z" fill="black"/>
<path d="M138.782 139.463C139.349 139.463 139.922 139.317 140.434 139.009C143.066 137.429 144.637 134.74 144.637 131.817V128.998C144.637 127.42 143.268 126.14 141.578 126.14C139.888 126.14 138.519 127.42 138.519 128.998V131.817C138.519 132.786 137.998 133.677 137.125 134.201C135.704 135.055 135.293 136.823 136.206 138.151C136.79 139 137.776 139.463 138.782 139.463Z" fill="black"/>
<path d="M90.4147 138.547V127.582C90.4147 125.768 91.7367 124.216 93.6293 123.808C95.2756 123.452 96.3023 121.918 95.9221 120.38C95.5419 118.842 93.8993 117.883 92.2535 118.238C87.5684 119.248 84.2962 123.09 84.2962 127.582V139.653C84.2962 140.365 84.5809 141.052 85.0945 141.578L89.3811 145.971C90.2124 146.823 90.2254 148.12 89.4109 148.986C88.8879 149.543 88.1031 149.825 87.3183 149.741L84.4578 149.438C83.7236 149.361 82.9857 149.532 82.3775 149.923L79.7784 151.595L77.1784 149.923C76.5707 149.532 75.8316 149.359 75.0986 149.438L72.2376 149.741C71.4508 149.825 70.6676 149.543 70.1451 148.986C69.3309 148.12 69.3436 146.823 70.1749 145.971L74.4614 141.578C74.975 141.051 75.2597 140.365 75.2597 139.653V127.582C75.2597 123.09 71.988 119.247 67.3024 118.238C65.6558 117.882 64.0132 118.842 63.6338 120.38C63.2537 121.918 64.2803 123.452 65.9266 123.807C67.8193 124.215 69.1412 125.768 69.1412 127.582V138.546L65.6525 142.121C62.7201 145.128 62.674 149.7 65.5469 152.757C67.391 154.719 70.1492 155.715 72.9282 155.421L74.6519 155.238L76.5825 156.479C77.5382 157.094 78.6579 157.401 79.7776 157.401C80.8968 157.401 82.0165 157.094 82.9722 156.479L84.9036 155.238L86.627 155.421C89.4072 155.715 92.165 154.719 94.0087 152.757C96.8811 149.7 96.8358 145.127 93.9022 142.121L90.4147 138.547Z" fill="black"/>
<path d="M43.7496 113.161L46.9026 111.426C52.1017 108.567 58.3531 107.986 64.053 109.832L71.3446 112.193C72.9403 112.709 74.6841 111.92 75.2368 110.429C75.7903 108.937 74.9447 107.31 73.3482 106.793L66.057 104.431C58.659 102.036 50.5464 102.79 43.7985 106.501L40.6451 108.236C39.1893 109.036 38.7039 110.788 39.5613 112.148C40.1315 113.053 41.1521 113.556 42.2004 113.556C42.7274 113.556 43.2621 113.429 43.7496 113.161Z" fill="black"/>
<path d="M119.445 108.236L116.291 106.501C109.543 102.79 101.43 102.036 94.0331 104.431L86.7415 106.793C85.145 107.31 84.2995 108.937 84.853 110.429C85.4057 111.92 87.149 112.71 88.7451 112.193L96.0371 109.832C101.737 107.986 107.988 108.567 113.187 111.426L116.34 113.161C116.828 113.429 117.362 113.556 117.89 113.556C118.938 113.556 119.959 113.053 120.529 112.148C121.386 110.788 120.9 109.036 119.445 108.236Z" fill="black"/>
<path d="M80.0447 103.766C81.7346 103.766 83.1039 102.487 83.1039 100.908V99.5656C83.1039 97.9874 81.7346 96.7079 80.0447 96.7079C78.3548 96.7079 76.9855 97.9874 76.9855 99.5656V100.908C76.9855 102.487 78.3552 103.766 80.0447 103.766Z" fill="black"/>
<path d="M63.4706 128.881C63.0933 127.342 61.4495 126.38 59.806 126.733C56.0571 127.535 52.1461 127.005 48.7949 125.24L45.3518 123.427C43.8813 122.651 42.0144 123.137 41.1843 124.512C40.3547 125.887 40.8747 127.63 42.3468 128.405L45.7899 130.219C49.0461 131.934 52.6809 132.815 56.3544 132.815C57.9619 132.815 59.5772 132.647 61.1717 132.305C62.8188 131.952 63.8479 130.42 63.4706 128.881Z" fill="black"/>
<path d="M114.738 123.426L111.295 125.24C107.944 127.005 104.034 127.536 100.284 126.733C98.6374 126.38 96.9957 127.342 96.6192 128.881C96.2419 130.42 97.2714 131.952 98.9185 132.305C100.513 132.646 102.127 132.814 103.736 132.814C107.409 132.814 111.044 131.933 114.3 130.218L117.743 128.405C119.215 127.629 119.735 125.886 118.906 124.512C118.076 123.137 116.209 122.651 114.738 123.426Z" fill="black"/>
<path d="M89.8428 167.581L88.3299 167.433C82.6552 166.88 76.901 166.88 71.2264 167.433L69.7143 167.581C68.0342 167.745 66.8142 169.15 66.9896 170.72C67.1535 172.189 68.4816 173.281 70.0284 173.281C70.1344 173.281 70.2417 173.276 70.3498 173.265L71.8615 173.118C77.0405 172.613 82.5157 172.613 87.694 173.118L89.2065 173.265C90.8898 173.433 92.3917 172.289 92.5667 170.72C92.7429 169.15 91.5229 167.745 89.8428 167.581Z" fill="black"/>
<path d="M29.1404 71.732C29.72 72.2049 30.4371 72.4369 31.1509 72.4369C32.0038 72.4369 32.8518 72.1058 33.4567 71.4585C42.6303 61.6412 55.8833 56.0107 69.8179 56.0107H90.6798C100.561 56.0107 110.062 58.7838 118.154 64.0306C119.542 64.931 121.449 64.609 122.412 63.3124C123.375 62.0157 123.031 60.2352 121.643 59.3352C118.406 57.2365 114.966 55.4959 111.381 54.1147V47.7355C111.381 43.6283 108.503 40.1373 104.532 38.9302V34.9656C104.532 29.3694 99.9227 24.7623 94.0649 24.2761L97.5797 19.1665C99.3386 16.6113 98.7679 13.2316 96.2533 11.3051L82.8147 1.01154C81.0554 -0.336927 78.5016 -0.337308 76.7423 1.01116L63.3034 11.3051C60.7887 13.2316 60.2184 16.6113 61.9765 19.1665L65.4917 24.2761C59.6339 24.7623 55.0251 29.3694 55.0251 34.9656V38.9306C51.0538 40.1373 48.1753 43.6287 48.1753 47.7358V54.4991C40.8482 57.4712 34.2244 61.9453 28.8471 67.6996C27.7364 68.8888 27.8673 70.6941 29.1404 71.732ZM67.1833 15.7247L79.7783 6.07697L92.3733 15.7247C92.4859 15.8108 92.5116 15.9621 92.4329 16.0767L86.8227 24.2316H72.7339L67.1233 16.0767C67.045 15.9621 67.0707 15.8108 67.1833 15.7247ZM54.2937 47.7362C54.2937 45.7834 55.9943 44.1953 58.0843 44.1953H70.2788C71.9687 44.1953 73.338 42.9158 73.338 41.3376C73.338 39.7593 71.9687 38.4798 70.2788 38.4798H61.1435V34.966C61.1435 32.1985 63.5538 29.947 66.5164 29.947H93.0398C96.0024 29.947 98.4127 32.1985 98.4127 34.966V38.4798H82.1641C80.4742 38.4798 79.1049 39.7593 79.1049 41.3376C79.1049 42.9158 80.4742 44.1953 82.1641 44.1953H101.472C103.562 44.1953 105.263 45.7838 105.263 47.7362V52.147C100.556 50.9258 95.6614 50.2952 90.6798 50.2952H69.8179C64.5054 50.2952 59.2819 51.0238 54.2937 52.413V47.7362Z" fill="black"/>
<g clip-path="url(#clip0)">
<path d="M130.493 237.705H21.5065C16.8086 237.705 13 234.501 13 230.549V229.14C13 225.188 16.8086 221.984 21.5065 221.984H130.494C135.192 221.984 139 225.188 139 229.14V230.549C139 234.501 135.192 237.705 130.493 237.705Z" fill="#E94444"/>
<path d="M138.999 229.139V230.548C138.999 234.502 135.193 237.706 130.494 237.706H125.516C130.215 237.706 134.022 234.502 134.022 230.548V229.139C134.022 225.188 130.215 221.984 125.516 221.984H130.494C135.193 221.984 138.999 225.188 138.999 229.139Z" fill="#D83131"/>
<path d="M130.493 237.705H76H21.5065C21.5065 237.705 17.748 252.973 39.1361 258.979C42.7999 260.008 46.6249 260.487 50.4606 260.487H76.0003H101.54C105.376 260.487 109.201 260.008 112.864 258.979C134.252 252.973 130.493 237.705 130.493 237.705Z" fill="#FE9738"/>
<path d="M112.864 258.979C109.199 260.009 105.375 260.489 101.54 260.489H95.7664C99.6036 260.489 103.428 260.009 107.093 258.979C128.479 252.973 124.72 237.706 124.72 237.706H130.494C130.494 237.706 134.253 252.973 112.864 258.979Z" fill="#FE860A"/>
<path d="M130.693 224.834C130.693 228.407 125.758 230.344 122.477 228.075C121.128 227.143 119.535 226.404 117.011 226.404C110.171 226.404 110.171 230.962 103.331 230.962C96.4911 230.962 96.4911 226.404 89.651 226.404C82.8111 226.404 82.8111 230.962 75.9713 230.962C69.1317 230.962 69.1317 226.404 62.2919 226.404C55.4518 226.404 55.4518 230.962 48.6117 230.962C41.7719 230.962 41.7718 226.404 34.932 226.404C32.4088 226.404 30.8165 227.142 29.4681 228.075C26.1868 230.343 21.2518 228.407 21.2518 224.834V216.378H130.693V224.834H130.693Z" fill="#BBEC6C"/>
<path d="M130.694 216.378V224.834C130.694 228.178 126.373 230.088 123.131 228.461C124.563 227.757 125.592 226.467 125.592 224.834V216.378H130.694Z" fill="#A2E62E"/>
<path d="M21.307 209.603V216.441H33.0396C35.4803 216.441 37.4591 218.105 37.4591 220.159V239.853C37.4591 242.478 39.9889 244.607 43.1095 244.607C46.2301 244.607 48.7596 242.478 48.7596 239.853V220.159C48.7596 218.105 50.7383 216.441 53.1791 216.441H130.693V209.603H21.307Z" fill="#FEE45A"/>
<path d="M125.592 209.602H130.694V216.44H125.592V209.602Z" fill="#FEDF30"/>
<path d="M130.493 210.071H21.5065C16.8086 210.071 13 206.867 13 202.914V201.505C13 197.553 16.8086 194.349 21.5065 194.349H130.494C135.192 194.349 139 197.553 139 201.505V202.914C139 206.867 135.192 210.071 130.493 210.071Z" fill="#9E5528"/>
<path d="M138.999 201.505V202.914C138.999 206.867 135.193 210.07 130.494 210.07H125.516C130.215 210.07 134.022 206.867 134.022 202.914V201.505C134.022 197.554 130.215 194.349 125.516 194.349H130.494C135.193 194.35 138.999 197.554 138.999 201.505Z" fill="#904D24"/>
<path d="M76 155.512C33.5142 156.029 19.2395 175.418 14.5271 186.683C12.9122 190.543 16.3552 194.583 21.2195 194.583H76H130.78C135.68 194.583 139.079 190.503 137.445 186.616C132.704 175.341 118.402 156.028 76 155.512Z" fill="#FE9738"/>
<path d="M130.78 194.584H130.175C131.824 193.036 132.504 190.782 131.584 188.59C126.842 177.313 112.54 158.002 70.1381 157.486C59.1688 157.618 50.0776 159.01 42.5503 161.196C51.0865 157.897 62.0151 155.682 76.0002 155.511C118.402 156.03 132.704 175.341 137.446 186.616C139.078 190.503 135.679 194.584 130.78 194.584Z" fill="#FE860A"/>
<path d="M58.463 171.902C58.1676 171.902 57.868 171.842 57.5898 171.716C56.6957 171.31 56.3628 170.37 56.8459 169.618L58.4949 167.051C58.978 166.299 60.0945 166.019 60.9886 166.426C61.8827 166.832 62.2156 167.771 61.7325 168.523L60.0835 171.09C59.7508 171.608 59.1173 171.902 58.463 171.902Z" fill="#E57917"/>
<path d="M75.9772 172.078C74.961 172.078 74.1371 171.385 74.1371 170.53V167.612C74.1371 166.757 74.961 166.064 75.9772 166.064C76.9934 166.064 77.8173 166.757 77.8173 167.612V170.53C77.8173 171.385 76.9934 172.078 75.9772 172.078Z" fill="#E57917"/>
<path d="M93.5371 171.881C92.9024 171.881 92.2849 171.604 91.9436 171.109L90.2036 168.585C89.6937 167.846 89.9931 166.898 90.8722 166.469C91.7512 166.041 92.8772 166.292 93.387 167.032L95.127 169.556C95.6368 170.296 95.3375 171.243 94.4584 171.672C94.1679 171.814 93.8507 171.881 93.5371 171.881Z" fill="#E57917"/>
</g>
<defs>
<clipPath id="clip0">
<rect width="126" height="106" fill="white" transform="translate(13 155)"/>
</clipPath>
</defs>
</svg>
