<svg width="398" height="115" viewBox="0 0 398 115" fill="none" xmlns="http://www.w3.org/2000/svg">
<path d="M3.98438 9.21875C6.29688 9.21875 8.32812 9.53125 10.0781 10.1562C11.8438 10.7656 13.3125 11.6016 14.4844 12.6641C15.6719 13.7109 16.5625 14.9297 17.1562 16.3203C17.75 17.7109 18.0469 19.1719 18.0469 20.7031C18.0469 21.3594 17.9609 22.0391 17.7891 22.7422C17.6172 23.4453 17.3672 24.1406 17.0391 24.8281C16.7109 25.5 16.3047 26.1562 15.8203 26.7969C15.3359 27.4375 14.7891 28.0391 14.1797 28.6016C15.7734 29.5391 16.9922 30.7031 17.8359 32.0938C18.6953 33.4688 19.125 35.0703 19.125 36.8984C19.125 38.4141 18.8047 39.8203 18.1641 41.1172C17.5234 42.3984 16.5703 43.5078 15.3047 44.4453C14.0391 45.3828 12.4609 46.1172 10.5703 46.6484C8.67969 47.1641 6.48438 47.4219 3.98438 47.4219V9.21875ZM8.34375 27.3594C8.92188 27.3594 9.51562 27.1953 10.125 26.8672C10.7344 26.5234 11.2891 26.0625 11.7891 25.4844C12.3047 24.8906 12.7188 24.1875 13.0312 23.375C13.3594 22.5625 13.5234 21.6797 13.5234 20.7266C13.5234 19.7422 13.3594 18.8438 13.0312 18.0312C12.7188 17.2188 12.3047 16.5234 11.7891 15.9453C11.2891 15.3516 10.7344 14.8984 10.125 14.5859C9.51562 14.2578 8.92188 14.0938 8.34375 14.0938V27.3594ZM8.34375 42.5469C9.23438 42.5469 10.0625 42.4141 10.8281 42.1484C11.5938 41.8672 12.25 41.4844 12.7969 41C13.3594 40.5 13.7969 39.9062 14.1094 39.2188C14.4375 38.5156 14.6016 37.7422 14.6016 36.8984C14.6016 36.2266 14.4375 35.5547 14.1094 34.8828C13.7969 34.2109 13.3594 33.6094 12.7969 33.0781C12.25 32.5312 11.5938 32.0938 10.8281 31.7656C10.0625 31.4219 9.23438 31.25 8.34375 31.25V42.5469ZM25.1016 22.1094H29.2734V38.3281C29.2734 41.5938 30.5469 43.2266 33.0938 43.2266C33.9531 43.2266 34.7188 43.0547 35.3906 42.7109C36.0781 42.3516 36.6562 41.8672 37.125 41.2578V22.1094H41.2969V47.4688L38.2031 45.2656C37.4844 45.8281 36.5938 46.3281 35.5312 46.7656C34.4844 47.2031 33.3438 47.4219 32.1094 47.4219C31.1406 47.4219 30.2266 47.25 29.3672 46.9062C28.5234 46.5469 27.7812 46.0312 27.1406 45.3594C26.5156 44.6719 26.0156 43.8281 25.6406 42.8281C25.2812 41.8125 25.1016 40.6484 25.1016 39.3359V22.1094ZM55.9922 47.4453C54.7891 47.4453 53.6406 47.1953 52.5469 46.6953C51.4688 46.1953 50.5234 45.4219 49.7109 44.375C48.8984 43.3281 48.25 41.9922 47.7656 40.3672C47.2969 38.7422 47.0625 36.8047 47.0625 34.5547C47.0625 32.3047 47.2969 30.3672 47.7656 28.7422C48.25 27.1172 48.8984 25.7812 49.7109 24.7344C50.5234 23.6875 51.4688 22.9141 52.5469 22.4141C53.6406 21.9141 54.7891 21.6641 55.9922 21.6641C56.6016 21.6641 57.1875 21.7422 57.75 21.8984C58.3125 22.0547 58.8438 22.2812 59.3438 22.5781V9.66406H63.5156V47.5391L60.6797 45.5234C60.0547 46.1484 59.3438 46.625 58.5469 46.9531C57.75 47.2812 56.8984 47.4453 55.9922 47.4453ZM56.2734 43.5078C56.8672 43.5078 57.4219 43.4062 57.9375 43.2031C58.4531 43 58.9219 42.7109 59.3438 42.3359V26.7969C58.4688 26 57.4453 25.6016 56.2734 25.6016C55.6328 25.6016 55.0156 25.7422 54.4219 26.0234C53.8281 26.3047 53.2969 26.7891 52.8281 27.4766C52.375 28.1484 52.0078 29.0625 51.7266 30.2188C51.4453 31.3594 51.3047 32.8047 51.3047 34.5547C51.3047 36.3047 51.4453 37.7578 51.7266 38.9141C52.0078 40.0547 52.375 40.9688 52.8281 41.6562C53.2969 42.3281 53.8281 42.8047 54.4219 43.0859C55.0156 43.3672 55.6328 43.5078 56.2734 43.5078ZM69.3281 39.2188C69.3281 36.6875 70.2188 34.6953 72 33.2422C73.7969 31.7891 76.4375 30.9766 79.9219 30.8047V30.3125C79.9219 28.8438 79.5703 27.6953 78.8672 26.8672C78.1797 26.0391 77.2344 25.625 76.0312 25.625C75.4062 25.625 74.7578 25.7422 74.0859 25.9766C73.4297 26.1953 72.7734 26.4922 72.1172 26.8672L70.5234 23.1172C71.5078 22.6172 72.5391 22.25 73.6172 22.0156C74.6953 21.7812 75.6719 21.6641 76.5469 21.6641C77.6719 21.6641 78.6953 21.8594 79.6172 22.25C80.5391 22.6406 81.3281 23.2031 81.9844 23.9375C82.6406 24.6562 83.1484 25.5391 83.5078 26.5859C83.8672 27.6328 84.0469 28.8203 84.0469 30.1484V47.4453L80.9766 45.9453C80.3828 46.4141 79.7188 46.7812 78.9844 47.0469C78.2656 47.3125 77.4844 47.4453 76.6406 47.4453C75.5781 47.4453 74.5938 47.2344 73.6875 46.8125C72.7969 46.375 72.0234 45.7891 71.3672 45.0547C70.7266 44.3203 70.2266 43.4531 69.8672 42.4531C69.5078 41.4531 69.3281 40.375 69.3281 39.2188ZM73.5703 39.2891C73.5703 39.8672 73.6562 40.4062 73.8281 40.9062C74 41.3906 74.2422 41.8203 74.5547 42.1953C74.8672 42.5547 75.2422 42.8359 75.6797 43.0391C76.1172 43.2422 76.6016 43.3438 77.1328 43.3438C77.6797 43.3438 78.2031 43.2422 78.7031 43.0391C79.2031 42.8359 79.6094 42.5781 79.9219 42.2656V34.5547C78.9219 34.5391 78.0312 34.6406 77.25 34.8594C76.4688 35.0625 75.8047 35.375 75.2578 35.7969C74.7109 36.2031 74.2891 36.7031 73.9922 37.2969C73.7109 37.875 73.5703 38.5391 73.5703 39.2891ZM109.055 47.4453C107.555 47.4453 106.125 47.1094 104.766 46.4375C103.406 45.7656 102.219 44.6719 101.203 43.1562C100.188 41.6406 99.375 39.6719 98.7656 37.25C98.1719 34.8125 97.875 31.8438 97.875 28.3438C97.875 24.8438 98.1719 21.8828 98.7656 19.4609C99.375 17.0234 100.188 15.0547 101.203 13.5547C102.219 12.0391 103.406 10.9453 104.766 10.2734C106.125 9.58594 107.555 9.24219 109.055 9.24219C109.914 9.24219 110.703 9.32031 111.422 9.47656C112.156 9.63281 112.906 9.875 113.672 10.2031L111.727 13.9766C111.148 13.7109 110.453 13.5781 109.641 13.5781C108.766 13.5781 107.898 13.8437 107.039 14.375C106.18 14.8906 105.406 15.7344 104.719 16.9062C104.031 18.0781 103.469 19.6016 103.031 21.4766C102.609 23.3516 102.398 25.6406 102.398 28.3438C102.398 31.0469 102.609 33.3359 103.031 35.2109C103.469 37.0859 104.031 38.6094 104.719 39.7812C105.406 40.9531 106.18 41.8047 107.039 42.3359C107.898 42.8516 108.766 43.1094 109.641 43.1094C110.453 43.1094 111.148 42.9766 111.727 42.7109L113.672 46.4844C112.906 46.8125 112.156 47.0547 111.422 47.2109C110.703 47.3672 109.914 47.4453 109.055 47.4453ZM126.562 47.4453C125.391 47.4453 124.266 47.1797 123.188 46.6484C122.109 46.1172 121.148 45.3125 120.305 44.2344C119.477 43.1562 118.812 41.8125 118.312 40.2031C117.812 38.5938 117.562 36.7109 117.562 34.5547C117.562 32.3984 117.812 30.5156 118.312 28.9062C118.812 27.2969 119.477 25.9531 120.305 24.875C121.148 23.7969 122.109 22.9922 123.188 22.4609C124.266 21.9297 125.391 21.6641 126.562 21.6641C127.734 21.6641 128.859 21.9297 129.938 22.4609C131.016 22.9922 131.969 23.7969 132.797 24.875C133.641 25.9531 134.312 27.2969 134.812 28.9062C135.312 30.5156 135.562 32.3984 135.562 34.5547C135.562 36.7109 135.312 38.5938 134.812 40.2031C134.312 41.8125 133.641 43.1562 132.797 44.2344C131.969 45.3125 131.016 46.1172 129.938 46.6484C128.859 47.1797 127.734 47.4453 126.562 47.4453ZM126.562 43.3438C127.125 43.3438 127.68 43.1953 128.227 42.8984C128.773 42.5859 129.266 42.0859 129.703 41.3984C130.156 40.7109 130.516 39.8047 130.781 38.6797C131.062 37.5547 131.203 36.1797 131.203 34.5547C131.203 32.9297 131.062 31.5625 130.781 30.4531C130.516 29.3281 130.156 28.4219 129.703 27.7344C129.266 27.0312 128.773 26.5312 128.227 26.2344C127.68 25.9219 127.125 25.7656 126.562 25.7656C126 25.7656 125.445 25.9219 124.898 26.2344C124.352 26.5312 123.852 27.0312 123.398 27.7344C122.961 28.4219 122.602 29.3281 122.32 30.4531C122.055 31.5625 121.922 32.9297 121.922 34.5547C121.922 36.1797 122.055 37.5547 122.32 38.6797C122.602 39.8047 122.961 40.7109 123.398 41.3984C123.852 42.0859 124.352 42.5859 124.898 42.8984C125.445 43.1953 126 43.3438 126.562 43.3438ZM141.211 26.0469H139.312V22.1094H141.211V20.7031C141.211 19.0938 141.406 17.6016 141.797 16.2266C142.203 14.8516 142.773 13.6562 143.508 12.6406C144.258 11.6094 145.148 10.7969 146.18 10.2031C147.227 9.59375 148.398 9.26562 149.695 9.21875V13.3203C148.961 13.4297 148.32 13.6953 147.773 14.1172C147.227 14.5234 146.773 15.0547 146.414 15.7109C146.07 16.3672 145.812 17.125 145.641 17.9844C145.469 18.8438 145.383 19.7656 145.383 20.75V22.1094H149.555V26.0469H145.383V47H141.211V26.0469ZM154.477 26.0469H152.578V22.1094H154.477V20.7031C154.477 19.0938 154.672 17.6016 155.062 16.2266C155.469 14.8516 156.039 13.6562 156.773 12.6406C157.523 11.6094 158.414 10.7969 159.445 10.2031C160.492 9.59375 161.664 9.26562 162.961 9.21875V13.3203C162.227 13.4297 161.586 13.6953 161.039 14.1172C160.492 14.5234 160.039 15.0547 159.68 15.7109C159.336 16.3672 159.078 17.125 158.906 17.9844C158.734 18.8438 158.648 19.7656 158.648 20.75V22.1094H162.82V26.0469H158.648V47H154.477V26.0469ZM175.547 47.4453C174.203 47.4453 172.961 47.1562 171.82 46.5781C170.695 45.9844 169.711 45.1328 168.867 44.0234C168.039 42.8984 167.391 41.5312 166.922 39.9219C166.453 38.2969 166.219 36.4531 166.219 34.3906C166.219 32.2812 166.461 30.4297 166.945 28.8359C167.43 27.2422 168.078 25.9141 168.891 24.8516C169.719 23.7891 170.664 22.9922 171.727 22.4609C172.805 21.9297 173.922 21.6641 175.078 21.6641C176.422 21.6641 177.602 22.0156 178.617 22.7188C179.633 23.4062 180.438 24.3906 181.031 25.6719C181.625 26.9531 181.992 28.5 182.133 30.3125C182.273 32.1094 182.148 34.1172 181.758 36.3359L170.555 36.3125C170.68 37.6562 170.922 38.7891 171.281 39.7109C171.656 40.6172 172.094 41.3516 172.594 41.9141C173.109 42.4766 173.664 42.8828 174.258 43.1328C174.852 43.3672 175.445 43.4844 176.039 43.4844C176.398 43.4844 176.758 43.4453 177.117 43.3672C177.492 43.2891 177.844 43.1875 178.172 43.0625C178.516 42.9375 178.828 42.7969 179.109 42.6406C179.391 42.4844 179.625 42.3359 179.812 42.1953L181.406 45.7578C181.062 45.9766 180.664 46.1875 180.211 46.3906C179.758 46.5938 179.273 46.7734 178.758 46.9297C178.258 47.0859 177.727 47.2109 177.164 47.3047C176.617 47.3984 176.078 47.4453 175.547 47.4453ZM177.914 32.3984C177.992 31.0859 177.961 30.0078 177.82 29.1641C177.695 28.3047 177.492 27.625 177.211 27.125C176.945 26.6094 176.617 26.2578 176.227 26.0703C175.836 25.8672 175.422 25.7656 174.984 25.7656C173.859 25.7656 172.891 26.3281 172.078 27.4531C171.281 28.5625 170.781 30.2109 170.578 32.3984H177.914ZM195.75 47.4453C194.406 47.4453 193.164 47.1562 192.023 46.5781C190.898 45.9844 189.914 45.1328 189.07 44.0234C188.242 42.8984 187.594 41.5312 187.125 39.9219C186.656 38.2969 186.422 36.4531 186.422 34.3906C186.422 32.2812 186.664 30.4297 187.148 28.8359C187.633 27.2422 188.281 25.9141 189.094 24.8516C189.922 23.7891 190.867 22.9922 191.93 22.4609C193.008 21.9297 194.125 21.6641 195.281 21.6641C196.625 21.6641 197.805 22.0156 198.82 22.7188C199.836 23.4062 200.641 24.3906 201.234 25.6719C201.828 26.9531 202.195 28.5 202.336 30.3125C202.477 32.1094 202.352 34.1172 201.961 36.3359L190.758 36.3125C190.883 37.6562 191.125 38.7891 191.484 39.7109C191.859 40.6172 192.297 41.3516 192.797 41.9141C193.312 42.4766 193.867 42.8828 194.461 43.1328C195.055 43.3672 195.648 43.4844 196.242 43.4844C196.602 43.4844 196.961 43.4453 197.32 43.3672C197.695 43.2891 198.047 43.1875 198.375 43.0625C198.719 42.9375 199.031 42.7969 199.312 42.6406C199.594 42.4844 199.828 42.3359 200.016 42.1953L201.609 45.7578C201.266 45.9766 200.867 46.1875 200.414 46.3906C199.961 46.5938 199.477 46.7734 198.961 46.9297C198.461 47.0859 197.93 47.2109 197.367 47.3047C196.82 47.3984 196.281 47.4453 195.75 47.4453ZM198.117 32.3984C198.195 31.0859 198.164 30.0078 198.023 29.1641C197.898 28.3047 197.695 27.625 197.414 27.125C197.148 26.6094 196.82 26.2578 196.43 26.0703C196.039 25.8672 195.625 25.7656 195.188 25.7656C194.062 25.7656 193.094 26.3281 192.281 27.4531C191.484 28.5625 190.984 30.2109 190.781 32.3984H198.117ZM216.516 37.7422C216.516 36.0703 216.852 34.3516 217.523 32.5859C218.195 30.8047 219.227 29 220.617 27.1719C219.617 25.3125 218.883 23.6094 218.414 22.0625C217.945 20.5 217.711 19.0312 217.711 17.6562C217.711 16.4375 217.891 15.3125 218.25 14.2812C218.625 13.25 219.148 12.3594 219.82 11.6094C220.508 10.8594 221.344 10.2734 222.328 9.85156C223.312 9.42969 224.43 9.21875 225.68 9.21875C226.945 9.21875 228.094 9.42969 229.125 9.85156C230.156 10.2734 231.109 10.8594 231.984 11.6094L229.594 14.7031C229.016 14.25 228.414 13.9062 227.789 13.6719C227.164 13.4375 226.516 13.3203 225.844 13.3203C224.672 13.3203 223.734 13.6875 223.031 14.4219C222.328 15.1406 221.977 16.2344 221.977 17.7031C221.977 18.2969 222.055 18.9844 222.211 19.7656C222.367 20.5312 222.648 21.4297 223.055 22.4609C223.461 23.4922 224.023 24.6719 224.742 26C225.477 27.3125 226.414 28.7969 227.555 30.4531L231.422 36.1016C231.438 35.8672 231.445 35.625 231.445 35.375C231.461 35.125 231.469 34.8672 231.469 34.6016V29.9375H229.828V26.2578H239.297V29.9375H235.523L235.547 34.6016C235.547 36.9609 235.242 39.0156 234.633 40.7656L237.516 44.9609L234.422 47.4219L232.43 44.5859C231.586 45.5078 230.602 46.2109 229.477 46.6953C228.367 47.1797 227.125 47.4219 225.75 47.4219C224.328 47.4219 223.047 47.1719 221.906 46.6719C220.766 46.1719 219.797 45.4844 219 44.6094C218.203 43.7344 217.586 42.7109 217.148 41.5391C216.727 40.3672 216.516 39.1016 216.516 37.7422ZM220.781 37.4609C220.781 38.4766 220.914 39.3516 221.18 40.0859C221.445 40.8203 221.805 41.4297 222.258 41.9141C222.727 42.3984 223.273 42.7578 223.898 42.9922C224.523 43.2109 225.195 43.3203 225.914 43.3203C226.805 43.3203 227.594 43.1484 228.281 42.8047C228.969 42.4609 229.555 41.9141 230.039 41.1641L223.992 32.5391C223.789 32.2734 223.594 32.0078 223.406 31.7422C223.234 31.4609 223.062 31.1875 222.891 30.9219C222.031 32.1875 221.461 33.3828 221.18 34.5078C220.914 35.6172 220.781 36.6016 220.781 37.4609ZM253.781 9.21875C256.094 9.21875 258.125 9.53125 259.875 10.1562C261.641 10.7656 263.109 11.6016 264.281 12.6641C265.469 13.7109 266.359 14.9297 266.953 16.3203C267.547 17.7109 267.844 19.1719 267.844 20.7031C267.844 21.3594 267.758 22.0391 267.586 22.7422C267.414 23.4453 267.164 24.1406 266.836 24.8281C266.508 25.5 266.102 26.1562 265.617 26.7969C265.133 27.4375 264.586 28.0391 263.977 28.6016C265.57 29.5391 266.789 30.7031 267.633 32.0938C268.492 33.4688 268.922 35.0703 268.922 36.8984C268.922 38.4141 268.602 39.8203 267.961 41.1172C267.32 42.3984 266.367 43.5078 265.102 44.4453C263.836 45.3828 262.258 46.1172 260.367 46.6484C258.477 47.1641 256.281 47.4219 253.781 47.4219V9.21875ZM258.141 27.3594C258.719 27.3594 259.312 27.1953 259.922 26.8672C260.531 26.5234 261.086 26.0625 261.586 25.4844C262.102 24.8906 262.516 24.1875 262.828 23.375C263.156 22.5625 263.32 21.6797 263.32 20.7266C263.32 19.7422 263.156 18.8438 262.828 18.0312C262.516 17.2188 262.102 16.5234 261.586 15.9453C261.086 15.3516 260.531 14.8984 259.922 14.5859C259.312 14.2578 258.719 14.0938 258.141 14.0938V27.3594ZM258.141 42.5469C259.031 42.5469 259.859 42.4141 260.625 42.1484C261.391 41.8672 262.047 41.4844 262.594 41C263.156 40.5 263.594 39.9062 263.906 39.2188C264.234 38.5156 264.398 37.7422 264.398 36.8984C264.398 36.2266 264.234 35.5547 263.906 34.8828C263.594 34.2109 263.156 33.6094 262.594 33.0781C262.047 32.5312 261.391 32.0938 260.625 31.7656C259.859 31.4219 259.031 31.25 258.141 31.25V42.5469ZM274.898 22.1094H279.07V38.3281C279.07 41.5938 280.344 43.2266 282.891 43.2266C283.75 43.2266 284.516 43.0547 285.188 42.7109C285.875 42.3516 286.453 41.8672 286.922 41.2578V22.1094H291.094V47.4688L288 45.2656C287.281 45.8281 286.391 46.3281 285.328 46.7656C284.281 47.2031 283.141 47.4219 281.906 47.4219C280.938 47.4219 280.023 47.25 279.164 46.9062C278.32 46.5469 277.578 46.0312 276.938 45.3594C276.312 44.6719 275.812 43.8281 275.438 42.8281C275.078 41.8125 274.898 40.6484 274.898 39.3359V22.1094ZM297.914 21.6641L301.453 24.125C302.422 23.375 303.461 22.7891 304.57 22.3672C305.68 21.9297 306.828 21.7109 308.016 21.7109V26.0703C306.766 26.0703 305.656 26.2031 304.688 26.4688C303.734 26.7344 302.906 27.2422 302.203 27.9922V47H297.914V21.6641ZM316.898 52.1562C317.93 51.7344 318.82 51.2891 319.57 50.8203C320.336 50.3672 320.984 49.8828 321.516 49.3672C322.047 48.8516 322.469 48.3047 322.781 47.7266C323.109 47.1484 323.352 46.5312 323.508 45.875C322.617 46.3125 321.594 46.5312 320.438 46.5312C319.281 46.5312 318.172 46.2891 317.109 45.8047C316.062 45.3203 315.133 44.5703 314.32 43.5547C313.523 42.5391 312.883 41.25 312.398 39.6875C311.914 38.1094 311.672 36.2344 311.672 34.0625C311.672 31.8906 311.914 30.0234 312.398 28.4609C312.883 26.8828 313.523 25.5859 314.32 24.5703C315.133 23.5547 316.062 22.8047 317.109 22.3203C318.172 21.8359 319.281 21.5938 320.438 21.5938C322.172 21.5938 323.648 22.1094 324.867 23.1406L327.961 21.6406V43.1797C327.961 44.5859 327.789 45.8906 327.445 47.0938C327.117 48.3125 326.586 49.4375 325.852 50.4688C325.133 51.5 324.203 52.4375 323.062 53.2812C321.922 54.125 320.547 54.875 318.938 55.5312L316.898 52.1562ZM320.883 42.5938C321.43 42.5938 321.945 42.5078 322.43 42.3359C322.93 42.1484 323.383 41.8906 323.789 41.5625V26.5859C322.945 25.8828 321.977 25.5312 320.883 25.5312C320.242 25.5312 319.625 25.6641 319.031 25.9297C318.438 26.1953 317.906 26.6562 317.438 27.3125C316.984 27.9688 316.617 28.8438 316.336 29.9375C316.055 31.0312 315.914 32.4062 315.914 34.0625C315.914 35.7188 316.055 37.0938 316.336 38.1875C316.617 39.2812 316.984 40.1562 317.438 40.8125C317.906 41.4688 318.438 41.9297 319.031 42.1953C319.625 42.4609 320.242 42.5938 320.883 42.5938ZM342.797 47.4453C341.453 47.4453 340.211 47.1562 339.07 46.5781C337.945 45.9844 336.961 45.1328 336.117 44.0234C335.289 42.8984 334.641 41.5312 334.172 39.9219C333.703 38.2969 333.469 36.4531 333.469 34.3906C333.469 32.2812 333.711 30.4297 334.195 28.8359C334.68 27.2422 335.328 25.9141 336.141 24.8516C336.969 23.7891 337.914 22.9922 338.977 22.4609C340.055 21.9297 341.172 21.6641 342.328 21.6641C343.672 21.6641 344.852 22.0156 345.867 22.7188C346.883 23.4062 347.688 24.3906 348.281 25.6719C348.875 26.9531 349.242 28.5 349.383 30.3125C349.523 32.1094 349.398 34.1172 349.008 36.3359L337.805 36.3125C337.93 37.6562 338.172 38.7891 338.531 39.7109C338.906 40.6172 339.344 41.3516 339.844 41.9141C340.359 42.4766 340.914 42.8828 341.508 43.1328C342.102 43.3672 342.695 43.4844 343.289 43.4844C343.648 43.4844 344.008 43.4453 344.367 43.3672C344.742 43.2891 345.094 43.1875 345.422 43.0625C345.766 42.9375 346.078 42.7969 346.359 42.6406C346.641 42.4844 346.875 42.3359 347.062 42.1953L348.656 45.7578C348.312 45.9766 347.914 46.1875 347.461 46.3906C347.008 46.5938 346.523 46.7734 346.008 46.9297C345.508 47.0859 344.977 47.2109 344.414 47.3047C343.867 47.3984 343.328 47.4453 342.797 47.4453ZM345.164 32.3984C345.242 31.0859 345.211 30.0078 345.07 29.1641C344.945 28.3047 344.742 27.625 344.461 27.125C344.195 26.6094 343.867 26.2578 343.477 26.0703C343.086 25.8672 342.672 25.7656 342.234 25.7656C341.109 25.7656 340.141 26.3281 339.328 27.4531C338.531 28.5625 338.031 30.2109 337.828 32.3984H345.164ZM354.961 21.6641L358.5 24.125C359.469 23.375 360.508 22.7891 361.617 22.3672C362.727 21.9297 363.875 21.7109 365.062 21.7109V26.0703C363.812 26.0703 362.703 26.2031 361.734 26.4688C360.781 26.7344 359.953 27.2422 359.25 27.9922V47H354.961V21.6641Z" fill="black"/>
<path d="M8.98828 77.6465C10.9922 77.5645 12.7383 77.752 14.2266 78.209C15.7148 78.6543 16.9453 79.3223 17.918 80.2129C18.8906 81.1035 19.6172 82.1875 20.0977 83.4648C20.5781 84.7422 20.8184 86.1543 20.8184 87.7012C20.8184 89.0254 20.6426 90.25 20.291 91.375C19.9512 92.5 19.4238 93.4961 18.709 94.3633C18.0059 95.2188 17.1152 95.9277 16.0371 96.4902C14.9707 97.0527 13.7109 97.4336 12.2578 97.6328V106H8.98828V77.6465ZM12.2578 94.3105C13.0078 94.2402 13.6992 94.0586 14.332 93.7656C14.9648 93.4609 15.5098 93.0332 15.9668 92.4824C16.4238 91.9316 16.7812 91.2637 17.0391 90.4785C17.2969 89.6816 17.4258 88.7559 17.4258 87.7012C17.4258 86.6465 17.2969 85.7266 17.0391 84.9414C16.7812 84.1445 16.4238 83.4707 15.9668 82.9199C15.5098 82.3691 14.9648 81.9473 14.332 81.6543C13.6992 81.3496 13.0078 81.1621 12.2578 81.0918V94.3105ZM24.9668 77.998H28.0957V106H24.9668V77.998ZM32.5078 100.164C32.5078 98.2656 33.1758 96.7715 34.5117 95.6816C35.8594 94.5918 37.8398 93.9824 40.4531 93.8535V93.4844C40.4531 92.3828 40.1895 91.5215 39.6621 90.9004C39.1465 90.2793 38.4375 89.9688 37.5352 89.9688C37.0664 89.9688 36.5801 90.0566 36.0762 90.2324C35.584 90.3965 35.0918 90.6191 34.5996 90.9004L33.4043 88.0879C34.1426 87.7129 34.916 87.4375 35.7246 87.2617C36.5332 87.0859 37.2656 86.998 37.9219 86.998C38.7656 86.998 39.5332 87.1445 40.2246 87.4375C40.916 87.7305 41.5078 88.1523 42 88.7031C42.4922 89.2422 42.873 89.9043 43.1426 90.6895C43.4121 91.4746 43.5469 92.3652 43.5469 93.3613V106.334L41.2441 105.209C40.7988 105.561 40.3008 105.836 39.75 106.035C39.2109 106.234 38.625 106.334 37.9922 106.334C37.1953 106.334 36.457 106.176 35.7773 105.859C35.1094 105.531 34.5293 105.092 34.0371 104.541C33.5566 103.99 33.1816 103.34 32.9121 102.59C32.6426 101.84 32.5078 101.031 32.5078 100.164ZM35.6895 100.217C35.6895 100.65 35.7539 101.055 35.8828 101.43C36.0117 101.793 36.1934 102.115 36.4277 102.396C36.6621 102.666 36.9434 102.877 37.2715 103.029C37.5996 103.182 37.9629 103.258 38.3613 103.258C38.7715 103.258 39.1641 103.182 39.5391 103.029C39.9141 102.877 40.2188 102.684 40.4531 102.449V96.666C39.7031 96.6543 39.0352 96.7305 38.4492 96.8945C37.8633 97.0469 37.3652 97.2812 36.9551 97.5977C36.5449 97.9023 36.2285 98.2773 36.0059 98.7227C35.7949 99.1562 35.6895 99.6543 35.6895 100.217ZM49.2598 90.2852H47.8711V87.332H49.2598V81.1094H52.3887V87.332H55.377V90.2852H52.3887V98.6172C52.3887 99.3203 52.4414 99.9355 52.5469 100.463C52.6641 100.99 52.8516 101.441 53.1094 101.816C53.3672 102.18 53.7012 102.473 54.1113 102.695C54.5215 102.918 55.0254 103.082 55.623 103.188V106.316C53.4902 106.223 51.8965 105.549 50.8418 104.295C49.7871 103.029 49.2598 101.125 49.2598 98.582V90.2852ZM59.1211 100.164C59.1211 98.2656 59.7891 96.7715 61.125 95.6816C62.4727 94.5918 64.4531 93.9824 67.0664 93.8535V93.4844C67.0664 92.3828 66.8027 91.5215 66.2754 90.9004C65.7598 90.2793 65.0508 89.9688 64.1484 89.9688C63.6797 89.9688 63.1934 90.0566 62.6895 90.2324C62.1973 90.3965 61.7051 90.6191 61.2129 90.9004L60.0176 88.0879C60.7559 87.7129 61.5293 87.4375 62.3379 87.2617C63.1465 87.0859 63.8789 86.998 64.5352 86.998C65.3789 86.998 66.1465 87.1445 66.8379 87.4375C67.5293 87.7305 68.1211 88.1523 68.6133 88.7031C69.1055 89.2422 69.4863 89.9043 69.7559 90.6895C70.0254 91.4746 70.1602 92.3652 70.1602 93.3613V106.334L67.8574 105.209C67.4121 105.561 66.9141 105.836 66.3633 106.035C65.8242 106.234 65.2383 106.334 64.6055 106.334C63.8086 106.334 63.0703 106.176 62.3906 105.859C61.7227 105.531 61.1426 105.092 60.6504 104.541C60.1699 103.99 59.7949 103.34 59.5254 102.59C59.2559 101.84 59.1211 101.031 59.1211 100.164ZM62.3027 100.217C62.3027 100.65 62.3672 101.055 62.4961 101.43C62.625 101.793 62.8066 102.115 63.041 102.396C63.2754 102.666 63.5566 102.877 63.8848 103.029C64.2129 103.182 64.5762 103.258 64.9746 103.258C65.3848 103.258 65.7773 103.182 66.1523 103.029C66.5273 102.877 66.832 102.684 67.0664 102.449V96.666C66.3164 96.6543 65.6484 96.7305 65.0625 96.8945C64.4766 97.0469 63.9785 97.2812 63.5684 97.5977C63.1582 97.9023 62.8418 98.2773 62.6191 98.7227C62.4082 99.1562 62.3027 99.6543 62.3027 100.217ZM75.4863 90.2852H74.0625V87.332H75.4863V86.2773C75.4863 85.0703 75.6328 83.9512 75.9258 82.9199C76.2305 81.8887 76.6582 80.9922 77.209 80.2305C77.7715 79.457 78.4395 78.8477 79.2129 78.4023C79.998 77.9453 80.877 77.6992 81.8496 77.6641V80.7402C81.2988 80.8223 80.8184 81.0215 80.4082 81.3379C79.998 81.6426 79.6582 82.041 79.3887 82.5332C79.1309 83.0254 78.9375 83.5938 78.8086 84.2383C78.6797 84.8828 78.6152 85.5742 78.6152 86.3125V87.332H81.7441V90.2852H78.6152V106H75.4863V90.2852ZM90.9727 106.334C90.0938 106.334 89.25 106.135 88.4414 105.736C87.6328 105.338 86.9121 104.734 86.2793 103.926C85.6582 103.117 85.1602 102.109 84.7852 100.902C84.4102 99.6953 84.2227 98.2832 84.2227 96.666C84.2227 95.0488 84.4102 93.6367 84.7852 92.4297C85.1602 91.2227 85.6582 90.2148 86.2793 89.4062C86.9121 88.5977 87.6328 87.9941 88.4414 87.5957C89.25 87.1973 90.0938 86.998 90.9727 86.998C91.8516 86.998 92.6953 87.1973 93.5039 87.5957C94.3125 87.9941 95.0273 88.5977 95.6484 89.4062C96.2812 90.2148 96.7852 91.2227 97.1602 92.4297C97.5352 93.6367 97.7227 95.0488 97.7227 96.666C97.7227 98.2832 97.5352 99.6953 97.1602 100.902C96.7852 102.109 96.2812 103.117 95.6484 103.926C95.0273 104.734 94.3125 105.338 93.5039 105.736C92.6953 106.135 91.8516 106.334 90.9727 106.334ZM90.9727 103.258C91.3945 103.258 91.8105 103.146 92.2207 102.924C92.6309 102.689 93 102.314 93.3281 101.799C93.668 101.283 93.9375 100.604 94.1367 99.7598C94.3477 98.916 94.4531 97.8848 94.4531 96.666C94.4531 95.4473 94.3477 94.4219 94.1367 93.5898C93.9375 92.7461 93.668 92.0664 93.3281 91.5508C93 91.0234 92.6309 90.6484 92.2207 90.4258C91.8105 90.1914 91.3945 90.0742 90.9727 90.0742C90.5508 90.0742 90.1348 90.1914 89.7246 90.4258C89.3145 90.6484 88.9395 91.0234 88.5996 91.5508C88.2715 92.0664 88.002 92.7461 87.791 93.5898C87.5918 94.4219 87.4922 95.4473 87.4922 96.666C87.4922 97.8848 87.5918 98.916 87.791 99.7598C88.002 100.604 88.2715 101.283 88.5996 101.799C88.9395 102.314 89.3145 102.689 89.7246 102.924C90.1348 103.146 90.5508 103.258 90.9727 103.258ZM101.783 86.998L104.438 88.8438C105.164 88.2812 105.943 87.8418 106.775 87.5254C107.607 87.1973 108.469 87.0332 109.359 87.0332V90.3027C108.422 90.3027 107.59 90.4023 106.863 90.6016C106.148 90.8008 105.527 91.1816 105 91.7441V106H101.783V86.998ZM112.893 86.998L115.459 88.8262C115.717 88.5801 116.004 88.3516 116.32 88.1406C116.637 87.918 116.971 87.7305 117.322 87.5781C117.674 87.4141 118.031 87.2852 118.395 87.1914C118.77 87.0977 119.139 87.0508 119.502 87.0508C120.58 87.0508 121.5 87.25 122.262 87.6484C123.035 88.0352 123.656 88.6094 124.125 89.3711C124.371 89.0547 124.664 88.7559 125.004 88.4746C125.355 88.1934 125.73 87.9473 126.129 87.7363C126.527 87.5254 126.943 87.3613 127.377 87.2441C127.811 87.1152 128.238 87.0508 128.66 87.0508C130.535 87.0508 131.947 87.6426 132.896 88.8262C133.846 89.998 134.32 91.6914 134.32 93.9062V106H131.191V93.9414C131.191 92.7344 130.945 91.8145 130.453 91.1816C129.973 90.5488 129.258 90.2324 128.309 90.2324C127.781 90.2324 127.236 90.3555 126.674 90.6016C126.123 90.8477 125.619 91.2344 125.162 91.7617V106H122.033V93.9414C122.033 92.7344 121.787 91.8145 121.295 91.1816C120.814 90.5488 120.1 90.2324 119.15 90.2324C118.623 90.2324 118.084 90.3555 117.533 90.6016C116.982 90.8477 116.479 91.2285 116.021 91.7441V106H112.893V86.998ZM138.68 100.164C138.68 98.2656 139.348 96.7715 140.684 95.6816C142.031 94.5918 144.012 93.9824 146.625 93.8535V93.4844C146.625 92.3828 146.361 91.5215 145.834 90.9004C145.318 90.2793 144.609 89.9688 143.707 89.9688C143.238 89.9688 142.752 90.0566 142.248 90.2324C141.756 90.3965 141.264 90.6191 140.771 90.9004L139.576 88.0879C140.314 87.7129 141.088 87.4375 141.896 87.2617C142.705 87.0859 143.438 86.998 144.094 86.998C144.938 86.998 145.705 87.1445 146.396 87.4375C147.088 87.7305 147.68 88.1523 148.172 88.7031C148.664 89.2422 149.045 89.9043 149.314 90.6895C149.584 91.4746 149.719 92.3652 149.719 93.3613V106.334L147.416 105.209C146.971 105.561 146.473 105.836 145.922 106.035C145.383 106.234 144.797 106.334 144.164 106.334C143.367 106.334 142.629 106.176 141.949 105.859C141.281 105.531 140.701 105.092 140.209 104.541C139.729 103.99 139.354 103.34 139.084 102.59C138.814 101.84 138.68 101.031 138.68 100.164ZM141.861 100.217C141.861 100.65 141.926 101.055 142.055 101.43C142.184 101.793 142.365 102.115 142.6 102.396C142.834 102.666 143.115 102.877 143.443 103.029C143.771 103.182 144.135 103.258 144.533 103.258C144.943 103.258 145.336 103.182 145.711 103.029C146.086 102.877 146.391 102.684 146.625 102.449V96.666C145.875 96.6543 145.207 96.7305 144.621 96.8945C144.035 97.0469 143.537 97.2812 143.127 97.5977C142.717 97.9023 142.4 98.2773 142.178 98.7227C141.967 99.1562 141.861 99.6543 141.861 100.217ZM166.963 106.334C166.061 106.334 165.199 106.146 164.379 105.771C163.57 105.396 162.861 104.816 162.252 104.031C161.643 103.246 161.156 102.244 160.793 101.025C160.441 99.8066 160.266 98.3535 160.266 96.666C160.266 94.9785 160.441 93.5254 160.793 92.3066C161.156 91.0879 161.643 90.0859 162.252 89.3008C162.861 88.5156 163.57 87.9355 164.379 87.5605C165.199 87.1855 166.061 86.998 166.963 86.998C167.42 86.998 167.859 87.0566 168.281 87.1738C168.703 87.291 169.102 87.4609 169.477 87.6836V77.998H172.605V106.404L170.479 104.893C170.01 105.361 169.477 105.719 168.879 105.965C168.281 106.211 167.643 106.334 166.963 106.334ZM167.174 103.381C167.619 103.381 168.035 103.305 168.422 103.152C168.809 103 169.16 102.783 169.477 102.502V90.8477C168.82 90.25 168.053 89.9512 167.174 89.9512C166.693 89.9512 166.23 90.0566 165.785 90.2676C165.34 90.4785 164.941 90.8418 164.59 91.3574C164.25 91.8613 163.975 92.5469 163.764 93.4141C163.553 94.2695 163.447 95.3535 163.447 96.666C163.447 97.9785 163.553 99.0684 163.764 99.9355C163.975 100.791 164.25 101.477 164.59 101.992C164.941 102.496 165.34 102.854 165.785 103.064C166.23 103.275 166.693 103.381 167.174 103.381ZM183.715 106.334C182.707 106.334 181.775 106.117 180.92 105.684C180.076 105.238 179.338 104.6 178.705 103.768C178.084 102.924 177.598 101.898 177.246 100.691C176.895 99.4727 176.719 98.0898 176.719 96.543C176.719 94.9609 176.9 93.5723 177.264 92.377C177.627 91.1816 178.113 90.1855 178.723 89.3887C179.344 88.5918 180.053 87.9941 180.85 87.5957C181.658 87.1973 182.496 86.998 183.363 86.998C184.371 86.998 185.256 87.2617 186.018 87.7891C186.779 88.3047 187.383 89.043 187.828 90.0039C188.273 90.9648 188.549 92.125 188.654 93.4844C188.76 94.832 188.666 96.3379 188.373 98.002L179.971 97.9844C180.064 98.9922 180.246 99.8418 180.516 100.533C180.797 101.213 181.125 101.764 181.5 102.186C181.887 102.607 182.303 102.912 182.748 103.1C183.193 103.275 183.639 103.363 184.084 103.363C184.354 103.363 184.623 103.334 184.893 103.275C185.174 103.217 185.438 103.141 185.684 103.047C185.941 102.953 186.176 102.848 186.387 102.73C186.598 102.613 186.773 102.502 186.914 102.396L188.109 105.068C187.852 105.232 187.553 105.391 187.213 105.543C186.873 105.695 186.51 105.83 186.123 105.947C185.748 106.064 185.35 106.158 184.928 106.229C184.518 106.299 184.113 106.334 183.715 106.334ZM185.49 95.0488C185.549 94.0645 185.525 93.2559 185.42 92.623C185.326 91.9785 185.174 91.4688 184.963 91.0938C184.764 90.707 184.518 90.4434 184.225 90.3027C183.932 90.1504 183.621 90.0742 183.293 90.0742C182.449 90.0742 181.723 90.4961 181.113 91.3398C180.516 92.1719 180.141 93.4082 179.988 95.0488H185.49ZM198.305 100.164C198.305 98.2656 198.973 96.7715 200.309 95.6816C201.656 94.5918 203.637 93.9824 206.25 93.8535V93.4844C206.25 92.3828 205.986 91.5215 205.459 90.9004C204.943 90.2793 204.234 89.9688 203.332 89.9688C202.863 89.9688 202.377 90.0566 201.873 90.2324C201.381 90.3965 200.889 90.6191 200.396 90.9004L199.201 88.0879C199.939 87.7129 200.713 87.4375 201.521 87.2617C202.33 87.0859 203.062 86.998 203.719 86.998C204.562 86.998 205.33 87.1445 206.021 87.4375C206.713 87.7305 207.305 88.1523 207.797 88.7031C208.289 89.2422 208.67 89.9043 208.939 90.6895C209.209 91.4746 209.344 92.3652 209.344 93.3613V106.334L207.041 105.209C206.596 105.561 206.098 105.836 205.547 106.035C205.008 106.234 204.422 106.334 203.789 106.334C202.992 106.334 202.254 106.176 201.574 105.859C200.906 105.531 200.326 105.092 199.834 104.541C199.354 103.99 198.979 103.34 198.709 102.59C198.439 101.84 198.305 101.031 198.305 100.164ZM201.486 100.217C201.486 100.65 201.551 101.055 201.68 101.43C201.809 101.793 201.99 102.115 202.225 102.396C202.459 102.666 202.74 102.877 203.068 103.029C203.396 103.182 203.76 103.258 204.158 103.258C204.568 103.258 204.961 103.182 205.336 103.029C205.711 102.877 206.016 102.684 206.25 102.449V96.666C205.5 96.6543 204.832 96.7305 204.246 96.8945C203.66 97.0469 203.162 97.2812 202.752 97.5977C202.342 97.9023 202.025 98.2773 201.803 98.7227C201.592 99.1562 201.486 99.6543 201.486 100.217ZM215.057 90.2852H213.668V87.332H215.057V81.1094H218.186V87.332H221.174V90.2852H218.186V98.6172C218.186 99.3203 218.238 99.9355 218.344 100.463C218.461 100.99 218.648 101.441 218.906 101.816C219.164 102.18 219.498 102.473 219.908 102.695C220.318 102.918 220.822 103.082 221.42 103.188V106.316C219.287 106.223 217.693 105.549 216.639 104.295C215.584 103.029 215.057 101.125 215.057 98.582V90.2852ZM231.668 106.334C230.66 106.334 229.729 106.117 228.873 105.684C228.029 105.238 227.291 104.6 226.658 103.768C226.037 102.924 225.551 101.898 225.199 100.691C224.848 99.4727 224.672 98.0898 224.672 96.543C224.672 94.9609 224.854 93.5723 225.217 92.377C225.58 91.1816 226.066 90.1855 226.676 89.3887C227.297 88.5918 228.006 87.9941 228.803 87.5957C229.611 87.1973 230.449 86.998 231.316 86.998C232.324 86.998 233.209 87.2617 233.971 87.7891C234.732 88.3047 235.336 89.043 235.781 90.0039C236.227 90.9648 236.502 92.125 236.607 93.4844C236.713 94.832 236.619 96.3379 236.326 98.002L227.924 97.9844C228.018 98.9922 228.199 99.8418 228.469 100.533C228.75 101.213 229.078 101.764 229.453 102.186C229.84 102.607 230.256 102.912 230.701 103.1C231.146 103.275 231.592 103.363 232.037 103.363C232.307 103.363 232.576 103.334 232.846 103.275C233.127 103.217 233.391 103.141 233.637 103.047C233.895 102.953 234.129 102.848 234.34 102.73C234.551 102.613 234.727 102.502 234.867 102.396L236.062 105.068C235.805 105.232 235.506 105.391 235.166 105.543C234.826 105.695 234.463 105.83 234.076 105.947C233.701 106.064 233.303 106.158 232.881 106.229C232.471 106.299 232.066 106.334 231.668 106.334ZM233.443 95.0488C233.502 94.0645 233.479 93.2559 233.373 92.623C233.279 91.9785 233.127 91.4688 232.916 91.0938C232.717 90.707 232.471 90.4434 232.178 90.3027C231.885 90.1504 231.574 90.0742 231.246 90.0742C230.402 90.0742 229.676 90.4961 229.066 91.3398C228.469 92.1719 228.094 93.4082 227.941 95.0488H233.443ZM240.791 86.998L243.428 88.8789C243.686 88.6211 243.979 88.3809 244.307 88.1582C244.635 87.9355 244.98 87.7422 245.344 87.5781C245.707 87.4141 246.076 87.2852 246.451 87.1914C246.826 87.0977 247.201 87.0508 247.576 87.0508C249.451 87.0508 250.863 87.6426 251.812 88.8262C252.762 89.998 253.236 91.6914 253.236 93.9062V106H250.107V93.9414C250.107 92.7344 249.861 91.8145 249.369 91.1816C248.889 90.5488 248.174 90.2324 247.225 90.2324C246.662 90.2324 246.088 90.373 245.502 90.6543C244.928 90.9238 244.4 91.3516 243.92 91.9375V106H240.791V86.998ZM264.24 106.334C263.338 106.334 262.477 106.146 261.656 105.771C260.848 105.396 260.139 104.816 259.529 104.031C258.92 103.246 258.434 102.244 258.07 101.025C257.719 99.8066 257.543 98.3535 257.543 96.666C257.543 94.9785 257.719 93.5254 258.07 92.3066C258.434 91.0879 258.92 90.0859 259.529 89.3008C260.139 88.5156 260.848 87.9355 261.656 87.5605C262.477 87.1855 263.338 86.998 264.24 86.998C264.697 86.998 265.137 87.0566 265.559 87.1738C265.98 87.291 266.379 87.4609 266.754 87.6836V77.998H269.883V106.404L267.756 104.893C267.287 105.361 266.754 105.719 266.156 105.965C265.559 106.211 264.92 106.334 264.24 106.334ZM264.451 103.381C264.896 103.381 265.312 103.305 265.699 103.152C266.086 103 266.438 102.783 266.754 102.502V90.8477C266.098 90.25 265.33 89.9512 264.451 89.9512C263.971 89.9512 263.508 90.0566 263.062 90.2676C262.617 90.4785 262.219 90.8418 261.867 91.3574C261.527 91.8613 261.252 92.5469 261.041 93.4141C260.83 94.2695 260.725 95.3535 260.725 96.666C260.725 97.9785 260.83 99.0684 261.041 99.9355C261.252 100.791 261.527 101.477 261.867 101.992C262.219 102.496 262.617 102.854 263.062 103.064C263.508 103.275 263.971 103.381 264.451 103.381ZM277.055 84.1328C276.715 84.1328 276.404 84.0742 276.123 83.957C275.842 83.8398 275.602 83.6816 275.402 83.4824C275.203 83.2832 275.051 83.0547 274.945 82.7969C274.84 82.5273 274.787 82.2461 274.787 81.9531C274.787 81.6602 274.84 81.3848 274.945 81.127C275.051 80.8574 275.203 80.623 275.402 80.4238C275.602 80.2246 275.842 80.0664 276.123 79.9492C276.404 79.832 276.715 79.7734 277.055 79.7734C277.395 79.7734 277.705 79.832 277.986 79.9492C278.268 80.0664 278.508 80.2246 278.707 80.4238C278.906 80.623 279.059 80.8574 279.164 81.127C279.27 81.3848 279.322 81.6602 279.322 81.9531C279.322 82.2461 279.27 82.5273 279.164 82.7969C279.059 83.0547 278.906 83.2832 278.707 83.4824C278.508 83.6816 278.268 83.8398 277.986 83.957C277.705 84.0742 277.395 84.1328 277.055 84.1328ZM275.385 87.332H278.514V106H275.385V87.332ZM284.244 86.998L286.811 88.8262C287.068 88.5801 287.355 88.3516 287.672 88.1406C287.988 87.918 288.322 87.7305 288.674 87.5781C289.025 87.4141 289.383 87.2852 289.746 87.1914C290.121 87.0977 290.49 87.0508 290.854 87.0508C291.932 87.0508 292.852 87.25 293.613 87.6484C294.387 88.0352 295.008 88.6094 295.477 89.3711C295.723 89.0547 296.016 88.7559 296.355 88.4746C296.707 88.1934 297.082 87.9473 297.48 87.7363C297.879 87.5254 298.295 87.3613 298.729 87.2441C299.162 87.1152 299.59 87.0508 300.012 87.0508C301.887 87.0508 303.299 87.6426 304.248 88.8262C305.197 89.998 305.672 91.6914 305.672 93.9062V106H302.543V93.9414C302.543 92.7344 302.297 91.8145 301.805 91.1816C301.324 90.5488 300.609 90.2324 299.66 90.2324C299.133 90.2324 298.588 90.3555 298.025 90.6016C297.475 90.8477 296.971 91.2344 296.514 91.7617V106H293.385V93.9414C293.385 92.7344 293.139 91.8145 292.646 91.1816C292.166 90.5488 291.451 90.2324 290.502 90.2324C289.975 90.2324 289.436 90.3555 288.885 90.6016C288.334 90.8477 287.83 91.2285 287.373 91.7441V106H284.244V86.998ZM316.781 106.334C315.773 106.334 314.842 106.117 313.986 105.684C313.143 105.238 312.404 104.6 311.771 103.768C311.15 102.924 310.664 101.898 310.312 100.691C309.961 99.4727 309.785 98.0898 309.785 96.543C309.785 94.9609 309.967 93.5723 310.33 92.377C310.693 91.1816 311.18 90.1855 311.789 89.3887C312.41 88.5918 313.119 87.9941 313.916 87.5957C314.725 87.1973 315.562 86.998 316.43 86.998C317.438 86.998 318.322 87.2617 319.084 87.7891C319.846 88.3047 320.449 89.043 320.895 90.0039C321.34 90.9648 321.615 92.125 321.721 93.4844C321.826 94.832 321.732 96.3379 321.439 98.002L313.037 97.9844C313.131 98.9922 313.312 99.8418 313.582 100.533C313.863 101.213 314.191 101.764 314.566 102.186C314.953 102.607 315.369 102.912 315.814 103.1C316.26 103.275 316.705 103.363 317.15 103.363C317.42 103.363 317.689 103.334 317.959 103.275C318.24 103.217 318.504 103.141 318.75 103.047C319.008 102.953 319.242 102.848 319.453 102.73C319.664 102.613 319.84 102.502 319.98 102.396L321.176 105.068C320.918 105.232 320.619 105.391 320.279 105.543C319.939 105.695 319.576 105.83 319.189 105.947C318.814 106.064 318.416 106.158 317.994 106.229C317.584 106.299 317.18 106.334 316.781 106.334ZM318.557 95.0488C318.615 94.0645 318.592 93.2559 318.486 92.623C318.393 91.9785 318.24 91.4688 318.029 91.0938C317.83 90.707 317.584 90.4434 317.291 90.3027C316.998 90.1504 316.688 90.0742 316.359 90.0742C315.516 90.0742 314.789 90.4961 314.18 91.3398C313.582 92.1719 313.207 93.4082 313.055 95.0488H318.557ZM325.904 86.998L328.541 88.8789C328.799 88.6211 329.092 88.3809 329.42 88.1582C329.748 87.9355 330.094 87.7422 330.457 87.5781C330.82 87.4141 331.189 87.2852 331.564 87.1914C331.939 87.0977 332.314 87.0508 332.689 87.0508C334.564 87.0508 335.977 87.6426 336.926 88.8262C337.875 89.998 338.35 91.6914 338.35 93.9062V106H335.221V93.9414C335.221 92.7344 334.975 91.8145 334.482 91.1816C334.002 90.5488 333.287 90.2324 332.338 90.2324C331.775 90.2324 331.201 90.373 330.615 90.6543C330.041 90.9238 329.514 91.3516 329.033 91.9375V106H325.904V86.998ZM344.01 90.2852H342.621V87.332H344.01V81.1094H347.139V87.332H350.127V90.2852H347.139V98.6172C347.139 99.3203 347.191 99.9355 347.297 100.463C347.414 100.99 347.602 101.441 347.859 101.816C348.117 102.18 348.451 102.473 348.861 102.695C349.271 102.918 349.775 103.082 350.373 103.188V106.316C348.24 106.223 346.646 105.549 345.592 104.295C344.537 103.029 344.01 101.125 344.01 98.582V90.2852ZM360.305 106.334C359.426 106.334 358.582 106.135 357.773 105.736C356.965 105.338 356.244 104.734 355.611 103.926C354.99 103.117 354.492 102.109 354.117 100.902C353.742 99.6953 353.555 98.2832 353.555 96.666C353.555 95.0488 353.742 93.6367 354.117 92.4297C354.492 91.2227 354.99 90.2148 355.611 89.4062C356.244 88.5977 356.965 87.9941 357.773 87.5957C358.582 87.1973 359.426 86.998 360.305 86.998C361.184 86.998 362.027 87.1973 362.836 87.5957C363.645 87.9941 364.359 88.5977 364.98 89.4062C365.613 90.2148 366.117 91.2227 366.492 92.4297C366.867 93.6367 367.055 95.0488 367.055 96.666C367.055 98.2832 366.867 99.6953 366.492 100.902C366.117 102.109 365.613 103.117 364.98 103.926C364.359 104.734 363.645 105.338 362.836 105.736C362.027 106.135 361.184 106.334 360.305 106.334ZM360.305 103.258C360.727 103.258 361.143 103.146 361.553 102.924C361.963 102.689 362.332 102.314 362.66 101.799C363 101.283 363.27 100.604 363.469 99.7598C363.68 98.916 363.785 97.8848 363.785 96.666C363.785 95.4473 363.68 94.4219 363.469 93.5898C363.27 92.7461 363 92.0664 362.66 91.5508C362.332 91.0234 361.963 90.6484 361.553 90.4258C361.143 90.1914 360.727 90.0742 360.305 90.0742C359.883 90.0742 359.467 90.1914 359.057 90.4258C358.646 90.6484 358.271 91.0234 357.932 91.5508C357.604 92.0664 357.334 92.7461 357.123 93.5898C356.924 94.4219 356.824 95.4473 356.824 96.666C356.824 97.8848 356.924 98.916 357.123 99.7598C357.334 100.604 357.604 101.283 357.932 101.799C358.271 102.314 358.646 102.689 359.057 102.924C359.467 103.146 359.883 103.258 360.305 103.258Z" fill="black"/>
</svg>
