<svg width="71" height="54" viewBox="0 0 71 54" fill="none" xmlns="http://www.w3.org/2000/svg">
<path d="M61.0157 20.25H49.9219C48.5315 20.2531 47.1935 20.6541 46.174 21.3732C45.1544 22.0924 44.5281 23.0769 44.4194 24.1313L37.7188 30.5016V30.375C37.7325 28.5358 36.8688 26.7552 35.2878 25.3634C33.7068 23.9717 31.5158 23.0632 29.1211 22.8066L26.1147 22.0472L25.5157 21.5916V19.1869C26.3863 18.724 27.1229 18.1302 27.68 17.4424C28.2372 16.7545 28.603 15.9871 28.755 15.1875H29.9532C30.5411 15.1862 31.1044 15.0079 31.5201 14.6918C31.9358 14.3756 32.1702 13.9471 32.1719 13.5V12.6562C32.1702 12.2091 31.9358 11.7807 31.5201 11.4645C31.1044 11.1483 30.5411 10.9701 29.9532 10.9688H28.8438V10.7325C29.8686 10.1914 30.7064 9.47002 31.2859 8.62972C31.8653 7.78943 32.1693 6.8551 32.1719 5.90625V2.53125C32.1719 2.30747 32.055 2.09286 31.847 1.93463C31.6389 1.77639 31.3568 1.6875 31.0625 1.6875H17.75C15.6912 1.68929 13.7173 2.31212 12.2615 3.41937C10.8057 4.52662 9.98676 6.02786 9.98442 7.59375V9.28125C9.9877 9.64317 10.0923 10.0004 10.2912 10.3292C10.4902 10.658 10.7789 10.9508 11.1382 11.1881C10.7901 11.3313 10.4992 11.5433 10.2962 11.8017C10.0931 12.06 9.98542 12.3553 9.98442 12.6562V13.5C9.98617 13.9471 10.2205 14.3756 10.6362 14.6918C11.0519 15.0079 11.6153 15.1862 12.2032 15.1875H13.4013C13.5533 15.9871 13.9192 16.7545 14.4763 17.4424C15.0335 18.1302 15.7701 18.724 16.6407 19.1869V21.5916L16.0416 22.0472L13.0352 22.8066C10.6406 23.0632 8.44958 23.9717 6.86856 25.3634C5.28755 26.7552 4.42381 28.5358 4.43754 30.375V51.4688C4.43754 51.6925 4.55442 51.9071 4.76247 52.0654C4.97052 52.2236 5.25269 52.3125 5.54691 52.3125H34.3907C35.2725 52.3105 36.1175 52.0432 36.7411 51.5689C37.3647 51.0946 37.7162 50.452 37.7188 49.7812V42.4406L52.7397 25.3125H56.5782C58.0493 25.3125 59.4602 24.868 60.5004 24.0769C61.5406 23.2857 62.125 22.2126 62.125 21.0938C62.125 20.87 62.0082 20.6554 61.8001 20.4971C61.5921 20.3389 61.3099 20.25 61.0157 20.25ZM29.9532 12.6562V13.5H28.8438V12.6562H29.9532ZM13.3125 13.5H12.2032V12.6562H13.3125V13.5ZM13.9227 8.53031C13.7388 8.5995 13.5841 8.70656 13.4762 8.83931C13.3683 8.97207 13.3116 9.12519 13.3125 9.28125V10.125C13.0183 10.125 12.7361 10.0361 12.5281 9.87787C12.32 9.71964 12.2032 9.50503 12.2032 9.28125V7.59375C12.2032 6.47487 12.7876 5.40181 13.8278 4.61064C14.868 3.81947 16.2789 3.375 17.75 3.375H29.9532V5.90625C29.9505 6.94127 29.4447 7.93899 28.5332 8.7075C28.3874 8.59144 28.2036 8.50699 28.0007 8.46281L19.1257 6.77531C18.8682 6.72582 18.5959 6.74983 18.3602 6.84281L13.9227 8.53031ZM15.5313 14.3438V9.80437L18.9925 8.48813L26.625 9.93937V14.3438C26.625 15.4626 26.0406 16.5357 25.0004 17.3269C23.9602 18.118 22.5493 18.5625 21.0782 18.5625C19.607 18.5625 18.1962 18.118 17.1559 17.3269C16.1157 16.5357 15.5313 15.4626 15.5313 14.3438ZM23.6186 22.5366L23.9514 22.7812L21.0782 24.9666L18.2049 22.7812L18.5377 22.5366C18.742 22.3757 18.8572 22.1612 18.8594 21.9375V20.0053C20.3075 20.3315 21.8488 20.3315 23.2969 20.0053V21.9375C23.2991 22.1612 23.4143 22.3757 23.6186 22.5366ZM16.3411 23.7431L20.2905 26.7553C20.5 26.9134 20.7831 27.0021 21.0782 27.0021C21.3732 27.0021 21.6564 26.9134 21.8658 26.7553L25.8152 23.7431L27.0688 24.0638L22.7311 28.6875H19.4252L15.0875 24.0638L16.3411 23.7431ZM23.0972 33.75L24.3286 39.3694L21.0782 41.8416L17.8277 39.3694L19.0591 33.75H23.0972ZM19.4252 32.0625L19.8024 30.375H22.3539L22.7311 32.0625H19.4252ZM11.0938 50.625H6.65629V40.5H11.0938V50.625ZM35.6886 41.7234C35.5653 41.86 35.4995 42.0218 35.5 42.1875V49.7812C35.5 50.005 35.3832 50.2196 35.1751 50.3779C34.9671 50.5361 34.6849 50.625 34.3907 50.625H13.3125V39.6562C13.3125 39.4325 13.1957 39.2179 12.9876 39.0596C12.7796 38.9014 12.4974 38.8125 12.2032 38.8125H6.65629V30.375C6.64361 29.0127 7.2492 27.6888 8.37087 26.6267C9.49253 25.5645 11.0616 24.8292 12.8133 24.5447L17.6946 29.7338L15.5424 39.5213C15.5147 39.6536 15.5284 39.789 15.5824 39.9165C15.6364 40.044 15.7291 40.1601 15.853 40.2553L20.2905 43.6303C20.5008 43.7872 20.7836 43.875 21.0782 43.875C21.3727 43.875 21.6555 43.7872 21.8658 43.6303L26.3033 40.2553C26.4273 40.1601 26.52 40.044 26.5739 39.9165C26.6279 39.789 26.6416 39.6536 26.6139 39.5213L24.4618 29.7338L29.343 24.5447C31.0947 24.8292 32.6638 25.5645 33.7855 26.6267C34.9071 27.6888 35.5127 29.0127 35.5 30.375V32.9062C35.501 33.0807 35.5729 33.2506 35.706 33.3926C35.8391 33.5347 36.0268 33.6418 36.2433 33.6994C36.4599 33.7583 36.6953 33.764 36.9163 33.7155C37.1373 33.6671 37.3327 33.567 37.4747 33.4294L46.0169 25.3125H50.0661L35.6886 41.7234ZM56.5782 23.625H46.7824C47.0138 23.1322 47.4395 22.7058 48.0014 22.4038C48.5633 22.1018 49.2339 21.9389 49.9219 21.9375H59.7177C59.4862 22.4303 59.0605 22.8567 58.4987 23.1587C57.9368 23.4607 57.2662 23.6236 56.5782 23.625Z" fill="black"/>
<path d="M65.4532 13.6519V13.5C65.4494 11.7052 64.6949 9.95782 63.2988 8.51075C61.9027 7.06368 59.9375 5.99195 57.6876 5.45062V4.21875C57.6876 3.54742 57.3369 2.90359 56.7128 2.42889C56.0886 1.95418 55.2421 1.6875 54.3594 1.6875C53.4776 1.6895 52.6326 1.95683 52.009 2.4311C51.3854 2.90537 51.034 3.54804 51.0313 4.21875V5.45062C48.7813 5.99195 46.8162 7.06368 45.4201 8.51075C44.024 9.95782 43.2695 11.7052 43.2657 13.5V13.6519C42.532 13.8544 41.9152 14.2465 41.5231 14.7598C41.131 15.2731 40.9887 15.8749 41.1208 16.46C41.253 17.045 41.6513 17.5761 42.2462 17.9605C42.841 18.3448 43.5946 18.5579 44.3751 18.5625H64.3438C65.1243 18.5579 65.8779 18.3448 66.4727 17.9605C67.0676 17.5761 67.4659 17.045 67.5981 16.46C67.7302 15.8749 67.5879 15.2731 67.1958 14.7598C66.8037 14.2465 66.1869 13.8544 65.4532 13.6519ZM53.2501 4.21875C53.2501 3.99497 53.367 3.78036 53.575 3.62213C53.783 3.46389 54.0652 3.375 54.3594 3.375C54.5075 3.37401 54.6542 3.3968 54.79 3.44187C54.9257 3.48694 55.0474 3.55328 55.1471 3.63656C55.2509 3.7113 55.3332 3.80166 55.3886 3.90189C55.4439 4.00213 55.4713 4.11004 55.4688 4.21875V5.10469C55.1027 5.07938 54.7366 5.0625 54.3594 5.0625C53.9823 5.0625 53.6162 5.07938 53.2501 5.10469V4.21875ZM54.3594 6.75C56.7123 6.75246 58.9678 7.4644 60.6315 8.72974C62.2951 9.99508 63.2312 11.7105 63.2345 13.5H48.8126C48.8126 12.3811 49.397 11.3081 50.4372 10.5169C51.4775 9.72572 52.8883 9.28125 54.3594 9.28125V7.59375C52.3006 7.59554 50.3267 8.21837 48.8709 9.32562C47.4151 10.4329 46.5962 11.9341 46.5938 13.5H45.4844C45.4877 11.7105 46.4238 9.99508 48.0874 8.72974C49.7511 7.4644 52.0066 6.75246 54.3594 6.75ZM64.3438 16.875H44.3751C44.0808 16.875 43.7987 16.7861 43.5906 16.6279C43.3826 16.4696 43.2657 16.255 43.2657 16.0312C43.2657 15.8075 43.3826 15.5929 43.5906 15.4346C43.7987 15.2764 44.0808 15.1875 44.3751 15.1875H64.3438C64.6381 15.1875 64.9202 15.2764 65.1283 15.4346C65.3363 15.5929 65.4532 15.8075 65.4532 16.0312C65.4532 16.255 65.3363 16.4696 65.1283 16.6279C64.9202 16.7861 64.6381 16.875 64.3438 16.875Z" fill="black"/>
<path d="M19.9688 10.9688H17.75V12.6562H19.9688V10.9688Z" fill="black"/>
<path d="M24.4062 10.9688H22.1875V12.6562H24.4062V10.9688Z" fill="black"/>
</svg>
